<svg width="408" height="469" viewBox="0 0 408 469" fill="none" xmlns="http://www.w3.org/2000/svg">
<path opacity="0.4" d="M242.789 468.521C243.268 469 243.747 469 244.704 469C246.62 469 250.451 469 251.409 468.521L308.873 435.5C310.31 434.543 310.31 433.107 308.873 432.15L129.296 328.3C126.901 326.864 122.592 326.864 119.718 328.3L62.2536 361.321C60.817 362.757 229.859 460.864 242.789 468.521Z" fill="#50197C"/>
<path d="M231.775 321.6L302.169 362.279L272.479 379.507L202.085 338.35L231.775 321.6Z" fill="url(#paint0_linear_11_191)"/>
<path d="M202.085 338.829C202.563 338.35 272.958 379.029 272.958 379.029C272.479 379.507 272.479 379.507 272.479 379.507C272 380.464 272 382.857 272.479 383.336L202.085 342.657C201.606 342.657 201.606 340.264 202.085 338.829Z" fill="#E0DBE1"/>
<path d="M237.521 314.9C238.958 312.029 238.958 309.157 238 307.243L218.845 265.129L289.239 305.807L308.394 347.921C309.352 349.836 308.873 352.707 307.915 355.579C307.437 357.014 306.479 358.45 305.042 359.886C304.085 360.843 303.127 361.8 302.169 362.279L231.775 321.6C232.732 321.121 233.69 320.164 234.648 319.207C235.606 317.771 236.563 316.336 237.521 314.9Z" fill="url(#paint1_linear_11_191)"/>
<path d="M272.479 379.507L302.169 362.279C304.563 360.843 306.479 358.45 307.915 355.579C309.352 352.707 309.352 349.836 308.394 347.921L289.239 305.807V304.85V263.693C289.239 262.257 290.197 261.3 291.155 260.343C292.113 259.864 293.07 260.343 293.07 261.3V301.979L312.225 344.093C313.662 346.964 313.183 351.75 311.268 356.057C309.352 360.364 306 364.193 302.648 366.586L273.437 383.336C271.521 384.293 271.521 379.986 272.479 379.507Z" fill="#C0B9C8"/>
<path d="M218.845 221.579C218.845 221.1 219.324 220.621 219.324 220.621C219.803 220.143 219.803 220.143 220.282 220.143C220.761 219.664 221.239 219.664 221.718 220.143L292.113 260.821C291.634 260.821 291.155 260.821 290.676 260.821C290.197 260.821 290.197 261.3 289.718 261.3C289.239 261.779 289.239 261.779 289.239 262.257C289.239 262.736 288.761 263.214 288.761 263.693V304.85V305.807L218.366 265.129V264.171V223.014C218.845 222.536 218.845 222.057 218.845 221.579Z" fill="url(#paint2_linear_11_191)"/>
<path d="M402.254 391.95L408 388.6V168.936L402.254 172.286V391.95Z" fill="#C0B9C8"/>
<path d="M402.254 172.286L408 168.936L115.409 0L109.662 3.35L402.254 172.286Z" fill="url(#paint3_linear_11_191)"/>
<path d="M109.662 3.35V223.014L402.254 391.95V172.286L109.662 3.35Z" fill="#E0DBE1"/>
<path d="M400.817 173.243L111.099 5.74286V196.214L401.296 363.714L400.817 173.243Z" fill="url(#paint4_linear_11_191)"/>
<path d="M236.563 284.75L247.099 290.493C248.535 291.45 249.493 290.971 249.493 289.536C249.493 288.1 248.535 286.186 247.099 285.707L236.563 279.964C235.127 279.007 234.169 279.486 234.169 280.921C234.169 281.879 235.127 283.793 236.563 284.75Z" fill="#5917FF"/>
<path d="M306.479 430.714V433.586C306.479 434.064 306 434.543 305.521 435.021L248.056 468.043C246.62 469 244.225 469 242.31 468.043L62.7325 364.193C61.7747 363.714 61.7747 363.236 61.7747 362.757V359.886L306.479 430.714Z" fill="url(#paint5_linear_11_191)"/>
<path d="M62.2536 361.8L241.831 465.65C243.268 466.607 245.662 466.607 247.577 465.65L305.042 432.629C306.479 431.671 306.479 430.236 305.042 429.279L125.465 325.429C124.028 324.471 121.634 324.471 119.718 325.429L62.2536 358.45C60.817 359.407 60.817 360.843 62.2536 361.8Z" fill="url(#paint6_linear_11_191)"/>
<path d="M151.324 346.486C151.324 346.486 151.324 346.007 151.324 346.486C151.324 346.007 151.324 346.007 151.324 346.007C151.324 345.529 151.324 345.529 150.845 345.05L143.662 340.743C143.183 340.264 141.747 340.264 141.268 340.743L134.563 344.571C134.085 345.05 134.085 345.05 134.085 345.529C134.085 345.529 134.085 345.529 134.085 346.007C134.085 346.007 134.085 346.007 134.085 346.486C134.085 346.964 134.085 346.964 134.563 347.443L141.747 351.75C142.225 352.229 143.662 352.229 144.141 351.75L150.366 348.4C150.845 346.964 151.324 346.486 151.324 346.486ZM138.873 340.264L132.648 343.614C132.169 344.093 130.732 344.093 130.254 343.614L123.07 339.307C122.592 339.307 122.592 338.829 122.592 338.35C122.592 338.35 122.592 338.35 122.592 337.871C122.592 337.871 122.592 337.871 122.592 337.393C122.592 336.914 122.592 336.914 123.07 336.436L129.296 333.086C129.775 332.607 131.211 332.607 131.69 333.086L138.873 337.393C139.352 337.871 139.352 337.871 139.352 338.35C139.352 338.35 139.352 338.35 139.352 338.829C139.352 338.829 139.352 338.829 139.352 339.307C139.352 339.786 138.873 340.264 138.873 340.264ZM162.338 354.143L156.113 357.493C155.634 357.971 154.197 357.971 153.718 357.493L146.535 353.186C146.056 353.186 146.056 352.707 146.056 352.229C146.056 352.229 146.056 352.229 146.056 351.75C146.056 351.75 146.056 351.75 146.056 351.271C146.056 350.793 146.056 350.793 146.535 350.314L152.761 346.964C153.239 346.486 154.676 346.486 155.155 346.964L162.338 351.271C162.817 351.75 162.817 351.75 162.817 352.229C162.817 352.229 162.817 352.229 162.817 352.707C162.817 352.707 162.817 352.707 162.817 353.186C163.296 353.664 162.817 354.143 162.338 354.143ZM258.592 434.543L252.366 437.893C251.887 438.371 250.451 438.371 249.972 437.893L242.789 433.586C242.31 433.107 242.31 433.107 242.31 432.629C242.31 432.629 242.31 432.629 242.31 432.15C242.31 432.15 242.31 432.15 242.31 431.671C242.31 431.193 242.31 431.193 242.789 430.714L249.014 427.364C249.493 426.886 250.93 426.886 251.408 427.364L258.592 431.671C259.07 432.629 259.07 432.629 259.07 433.107C259.07 433.107 259.07 433.107 259.07 433.586C259.07 433.586 259.07 433.586 259.07 434.064C259.07 434.064 259.07 434.064 258.592 434.543ZM232.732 394.343L226.507 397.693C226.028 398.171 224.592 398.171 224.113 397.693L216.93 393.386C216.451 393.386 216.451 392.907 216.451 392.429C216.451 392.429 216.451 392.429 216.451 391.95C216.451 391.95 216.451 391.95 216.451 391.471C216.451 390.993 216.451 390.993 216.93 390.514L223.155 387.164C223.634 386.686 225.07 386.686 225.549 387.164L232.732 392.429C233.211 392.907 233.211 392.907 233.211 393.386C233.211 393.386 233.211 393.386 233.211 393.864C233.211 393.864 233.211 393.864 233.211 394.343C233.211 393.864 232.732 394.343 232.732 394.343ZM208.789 380.943L202.563 384.293C202.085 384.771 200.648 384.771 200.169 384.293L192.986 379.986C192.507 379.986 192.507 379.507 192.507 379.029C192.507 379.029 192.507 379.029 192.507 378.55C192.507 378.55 192.507 378.55 192.507 378.071C192.507 377.593 192.507 377.593 192.986 377.114L199.211 373.764C199.69 373.286 201.127 373.286 201.606 373.764L208.789 378.071C209.268 378.55 209.268 378.55 209.268 379.029C209.268 379.029 209.268 379.029 209.268 379.507C209.268 379.507 209.268 379.507 209.268 379.986C209.268 379.986 209.268 380.464 208.789 380.943ZM184.845 367.064L178.62 370.414C178.141 370.893 176.704 370.893 176.225 370.414L165.211 363.714C164.732 363.236 164.732 363.236 164.732 362.757C164.732 362.757 164.732 362.757 164.732 362.279C164.732 362.279 164.732 362.279 164.732 361.8C164.732 361.321 164.732 361.321 165.211 360.843L171.437 357.493C171.916 357.014 173.352 357.014 173.831 357.493L184.845 364.193C185.324 364.671 185.324 364.671 185.324 365.15C185.324 365.15 185.324 365.15 185.324 365.629C185.324 365.629 185.324 365.629 185.324 366.107C185.324 366.586 185.324 366.586 184.845 367.064ZM196.817 373.764L190.592 377.114C190.113 377.593 188.676 377.593 188.197 377.114L181.014 372.807C180.535 372.329 180.535 372.329 180.535 371.85C180.535 371.85 180.535 371.85 180.535 371.371C180.535 371.371 180.535 371.371 180.535 370.893C180.535 370.414 180.535 370.414 181.014 369.936L187.239 366.586C187.718 366.107 189.155 366.107 189.634 366.586L196.817 371.85C197.296 371.85 197.296 372.329 197.296 372.807C197.296 372.807 197.296 372.807 197.296 373.286C197.296 373.286 197.296 373.286 197.296 373.764C197.296 373.286 197.296 373.764 196.817 373.764ZM220.761 387.643L214.535 390.993C214.056 391.471 212.62 391.471 212.141 390.993L204.958 386.686C204.479 386.207 204.479 386.207 204.479 385.729C204.479 385.729 204.479 385.729 204.479 385.25C204.479 385.25 204.479 385.25 204.479 384.771C204.479 384.293 204.479 384.293 204.958 383.814L211.183 380.464C211.662 379.986 213.099 379.986 213.577 380.464L220.761 385.25C221.239 385.25 221.239 385.729 221.239 386.207C221.239 386.207 221.239 386.207 221.239 386.686C221.239 386.686 221.239 386.686 221.239 387.164C221.239 387.164 221.239 387.164 220.761 387.643ZM170 370.893L163.775 374.243C163.296 374.721 161.859 374.721 161.38 374.243L154.197 369.936C153.718 369.936 153.718 369.457 153.718 368.979C153.718 368.979 153.718 368.979 153.718 368.5C153.718 368.5 153.718 368.5 153.718 368.021C153.718 367.543 153.718 367.543 154.197 367.064L160.423 363.714C160.901 363.236 162.338 363.236 162.817 363.714L170 368.021C170.479 368.5 170.479 368.5 170.479 368.979C170.479 368.979 170.479 368.979 170.479 369.457C170.479 369.457 170.479 369.457 170.479 369.936C170.479 370.414 170.479 370.893 170 370.893ZM265.296 425.929L259.07 429.279C258.592 429.757 257.155 429.757 256.676 429.279L249.493 424.971C249.014 424.493 249.014 424.493 249.014 424.014C249.014 424.014 249.014 424.014 249.014 423.536C249.014 423.536 249.014 423.536 249.014 423.057C249.014 422.579 249.014 422.579 249.493 422.1L255.718 418.75C256.197 418.271 257.634 418.271 258.113 418.75L265.296 423.057C265.775 423.536 265.775 423.536 265.775 424.014C265.775 424.014 265.775 424.014 265.775 424.493C265.775 424.493 265.775 424.493 265.775 424.971C265.775 425.45 265.775 425.929 265.296 425.929ZM181.972 378.071L175.746 381.421C175.268 381.9 173.831 381.9 173.352 381.421L166.169 377.114C165.69 376.636 165.69 376.636 165.69 376.157C165.69 376.157 165.69 376.157 165.69 375.679C165.69 375.679 165.69 375.679 165.69 375.2C165.69 374.721 165.69 374.721 166.169 374.243L172.394 370.893C172.873 370.414 174.31 370.414 174.789 370.893L181.972 375.2C182.451 375.2 182.451 375.679 182.451 376.157C182.451 376.157 182.451 376.157 182.451 376.636C182.451 376.636 182.451 376.636 182.451 377.114C182.451 377.114 182.451 377.593 181.972 378.071ZM193.944 384.771L187.718 388.121C187.239 388.6 185.803 388.6 185.324 388.121L178.141 383.814C177.662 383.814 177.662 383.336 177.662 382.857C177.662 382.857 177.662 382.857 177.662 382.379C177.662 382.379 177.662 382.379 177.662 381.9C177.662 381.421 177.662 381.421 178.141 380.943L183.887 378.071C184.366 377.593 185.803 377.593 186.282 378.071L193.465 382.379C193.944 382.857 193.944 382.857 193.944 383.336C193.944 383.336 193.944 383.336 193.944 383.814C193.944 383.814 193.944 383.814 193.944 384.293C194.423 384.293 194.423 384.293 193.944 384.771ZM205.916 391.471L199.69 394.821C199.211 395.3 197.775 395.3 197.296 394.821L190.113 390.514C189.634 390.036 189.634 390.036 189.634 389.557C189.634 389.557 189.634 389.557 189.634 389.079C189.634 389.079 189.634 389.079 189.634 388.6C189.634 388.121 189.634 388.121 190.113 387.643L196.338 384.293C196.817 383.814 198.254 383.814 198.732 384.293L205.916 388.6C206.394 388.6 206.394 389.079 206.394 389.557C206.394 389.557 206.394 389.557 206.394 390.036C206.394 390.036 206.394 390.036 206.394 390.514C206.394 390.993 205.916 391.471 205.916 391.471ZM253.324 419.229L247.099 422.579C246.62 423.057 245.183 423.057 244.704 422.579L237.521 418.271C237.042 417.793 237.042 417.793 237.042 417.314C237.042 417.314 237.042 417.314 237.042 416.836C237.042 416.836 237.042 416.836 237.042 416.357C237.042 415.879 237.042 415.879 237.521 415.4L243.747 412.05C244.225 411.571 245.662 411.571 246.141 412.05L253.324 416.357C253.803 416.836 253.803 416.836 253.803 417.314C253.803 417.314 253.803 417.314 253.803 417.793C253.803 417.793 253.803 417.793 253.803 418.271C253.803 418.75 253.803 418.75 253.324 419.229ZM241.352 412.05L235.127 415.4C234.648 415.879 233.211 415.879 232.732 415.4L225.549 411.093C225.07 411.093 225.07 410.614 225.07 410.136C225.07 410.136 225.07 410.136 225.07 409.657C225.07 409.657 225.07 409.657 225.07 409.179C225.07 408.7 225.07 408.7 225.549 408.221C234.648 402.957 231.775 402.957 241.831 408.7C242.31 409.179 242.31 409.179 242.31 409.657C242.31 409.657 242.31 409.657 242.31 410.136C242.31 410.136 242.31 410.136 242.31 410.614C241.831 411.571 241.831 412.05 241.352 412.05ZM229.38 405.35L223.155 408.7C222.676 409.179 221.239 409.179 220.761 408.7L213.577 404.393C213.099 403.914 213.099 403.914 213.099 403.436C213.099 403.436 213.099 403.436 213.099 402.957C213.099 402.957 213.099 402.957 213.099 402.479C213.099 402 213.099 402 213.577 401.521L219.803 398.171C220.282 397.693 221.718 397.693 222.197 398.171L229.38 402.479C229.859 402.957 229.859 402.957 229.859 403.436C229.859 403.436 229.859 403.436 229.859 403.914C229.859 403.914 229.859 403.914 229.859 404.393C229.859 404.871 229.859 405.35 229.38 405.35ZM217.408 398.65C211.183 402 210.225 402.957 208.789 402L201.606 397.693C201.127 397.693 201.127 397.214 201.127 396.736C201.127 396.736 201.127 396.736 201.127 396.257C201.127 396.257 201.127 396.257 201.127 395.779C201.127 395.3 201.127 395.3 201.606 394.821L207.831 391.471C208.31 390.993 209.747 390.993 210.225 391.471L217.408 395.779C217.887 396.257 217.887 396.257 217.887 396.736C217.887 396.736 217.887 396.736 217.887 397.214C217.887 397.214 217.887 397.214 217.887 397.693C218.366 397.693 217.887 398.171 217.408 398.65ZM238.958 443.636C238.958 443.157 238.958 443.157 238.958 443.157C238.958 442.679 238.958 442.679 239.437 442.2L245.662 438.85C246.141 438.371 247.577 438.371 248.056 438.85L259.549 445.071C260.028 445.071 260.028 445.55 260.028 446.029C260.028 446.029 260.028 446.029 260.028 446.507C260.028 446.507 260.028 446.507 260.028 446.986C260.028 447.464 260.028 447.464 259.549 447.943L253.324 451.293C252.845 451.771 251.408 451.771 250.93 451.293L239.916 444.593C238.958 444.593 238.958 444.114 238.958 443.636ZM253.803 439.807C253.803 439.329 253.803 439.329 253.803 439.329C253.803 438.85 253.803 438.85 254.282 438.371L260.507 435.021C260.986 434.543 262.423 434.543 262.901 435.021L270.085 439.329C270.563 439.807 270.563 439.807 270.563 440.286C270.563 440.286 270.563 440.286 270.563 440.764C270.563 440.764 270.563 440.764 270.563 441.243C270.563 441.721 270.563 441.721 270.085 442.2L263.859 445.55C263.38 446.029 261.944 446.029 261.465 445.55L254.282 441.243C253.803 440.286 253.803 440.286 253.803 439.807ZM244.225 401.521C235.127 406.786 238.479 406.786 227.944 401.043C227.465 400.564 227.465 400.564 227.465 400.086C227.465 400.086 227.465 400.086 227.465 399.607C227.465 399.607 227.465 399.607 227.465 399.129C227.465 398.65 227.465 398.65 227.944 398.171L234.169 394.821C234.648 394.343 236.085 394.343 236.563 394.821L243.747 399.129C244.225 399.129 244.225 399.607 244.225 400.086C244.225 400.086 244.225 400.086 244.225 400.564C244.225 400.564 244.225 400.564 244.225 401.043C245.183 400.564 244.704 401.043 244.225 401.521ZM113.014 371.371C113.014 370.893 113.014 370.893 113.014 370.893C113.014 370.414 113.014 370.414 113.493 369.936L119.718 366.586C120.197 366.107 121.634 366.107 122.113 366.586L129.296 370.893C129.775 370.893 129.775 371.371 129.775 371.85C129.775 371.85 129.775 371.85 129.775 372.329C129.775 372.329 129.775 372.329 129.775 372.807C129.775 373.286 129.775 373.286 129.296 373.764L123.07 377.114C122.592 377.593 121.155 377.593 120.676 377.114L113.493 372.807C113.493 371.85 113.014 371.85 113.014 371.371ZM260.507 431.193C260.507 430.714 260.507 430.714 260.507 430.714C260.507 430.236 260.507 430.236 260.986 429.757L267.211 426.407C267.69 425.929 269.127 425.929 269.606 426.407L280.62 433.107C281.099 433.586 281.099 433.586 281.099 434.064C281.099 434.064 281.099 434.064 281.099 434.543C281.099 434.543 281.099 434.543 281.099 435.021C281.099 435.5 281.099 435.5 280.62 435.979L274.394 439.329C273.915 439.807 272.479 439.807 272 439.329L260.986 432.629C260.507 432.15 260.507 431.671 260.507 431.193ZM256.197 408.221L249.972 411.571C249.493 412.05 248.056 412.05 247.577 411.571L240.394 407.264C239.916 407.264 239.916 406.786 239.916 406.307C239.916 406.307 239.916 406.307 239.916 405.829C239.916 405.829 239.916 405.829 239.916 405.35C239.916 404.871 239.916 404.871 240.394 404.393L246.62 401.043C247.099 400.564 248.535 400.564 249.014 401.043L256.197 405.35C256.676 405.829 256.676 405.829 256.676 406.307C256.676 406.307 256.676 406.307 256.676 406.786C256.676 406.786 256.676 406.786 256.676 407.264C257.155 407.743 256.676 408.221 256.197 408.221ZM268.169 414.921L261.944 418.271C261.465 418.75 260.028 418.75 259.549 418.271L252.366 413.964C251.887 413.486 251.887 413.486 251.887 413.007C251.887 413.007 251.887 413.007 251.887 412.529C251.887 412.529 251.887 412.529 251.887 412.05C251.887 411.571 251.887 411.571 252.366 411.093L258.592 407.743C259.07 407.264 260.507 407.264 260.986 407.743L268.169 412.05C268.648 413.007 268.648 413.486 268.648 413.964C268.648 413.964 268.648 413.964 268.648 414.443C268.648 414.443 268.648 414.443 268.648 414.921C268.648 414.443 268.648 414.921 268.169 414.921ZM275.352 427.364C275.352 426.886 275.352 426.886 275.352 426.886C275.352 426.407 275.352 426.407 275.831 425.929L282.056 422.579C282.535 422.1 283.972 422.1 284.451 422.579L291.634 426.886C292.113 426.886 292.113 427.364 292.113 427.843C292.113 427.843 292.113 427.843 292.113 428.321C292.113 428.321 292.113 428.321 292.113 428.8C292.113 429.279 292.113 429.279 291.634 429.757L285.408 433.107C284.93 433.586 283.493 433.586 283.014 433.107L275.831 428.8C275.352 427.843 275.352 427.843 275.352 427.364ZM280.141 422.1L273.916 425.45C273.437 425.929 272 425.929 271.521 425.45L263.859 421.143C263.38 421.143 263.38 420.664 263.38 420.186C263.38 420.186 263.38 420.186 263.38 419.707C263.38 419.707 263.38 419.707 263.38 419.229C263.38 418.75 263.38 418.75 263.859 418.271L270.085 414.921C270.563 414.443 272 414.443 272.479 414.921L279.662 419.229C280.141 419.707 280.141 419.707 280.141 420.186C280.141 420.186 280.141 420.186 280.141 420.664C280.141 420.664 280.141 420.664 280.141 421.143C280.62 421.621 280.62 421.621 280.141 422.1ZM78.5353 363.236C78.5353 362.757 78.5352 362.757 79.0141 362.279L85.2395 358.929C85.7183 358.45 87.155 358.45 87.6338 358.929L94.8169 363.236C95.2958 363.714 95.2958 363.714 95.2958 364.193C95.2958 364.193 95.2958 364.193 95.2958 364.671C95.2958 364.671 95.2958 364.671 95.2958 365.15C95.2958 365.629 95.2958 365.629 94.8169 366.107L88.5916 369.457C88.1127 369.936 86.6761 369.936 86.1972 369.457L79.0141 365.15C78.5352 364.671 78.5353 364.671 78.5353 364.193C78.5353 363.714 78.5353 363.714 78.5353 363.236C78.5353 363.714 78.5353 363.714 78.5353 363.236ZM121.634 351.75L129.775 346.964C130.732 346.486 132.169 346.486 133.127 346.964L151.803 357.971C152.282 358.45 152.282 358.45 152.282 358.929C152.282 358.929 152.282 358.929 152.282 359.407C152.282 359.407 152.282 359.407 152.282 359.886C152.282 360.364 152.282 360.843 151.803 360.843L135.521 370.414C134.563 370.893 133.127 370.893 132.169 370.414L101.042 352.707C100.563 352.229 100.563 352.229 100.563 351.75C100.563 351.75 100.563 351.75 100.563 351.271C100.563 351.271 100.563 351.271 100.563 350.793C100.563 350.314 100.563 349.836 101.042 349.836L107.268 346.486C107.747 346.007 108.704 346.007 109.183 346.486L119.718 352.229C120.197 352.229 121.155 352.229 121.634 351.75ZM132.169 380.464L138.394 377.114C138.873 376.636 140.31 376.636 140.789 377.114L147.972 381.421C148.451 381.9 148.451 381.9 148.451 382.379C148.451 382.379 148.451 382.379 148.451 382.857C148.451 382.857 148.451 382.857 148.451 383.336C148.451 383.814 148.451 383.814 147.972 384.293L141.747 387.643C141.268 388.121 139.831 388.121 139.352 387.643L132.169 383.336C131.69 382.857 131.69 382.857 131.69 382.379C131.69 382.379 131.69 382.379 131.69 381.9C131.69 381.9 131.69 381.9 131.69 381.421C131.69 380.943 131.69 380.943 132.169 380.464ZM102 363.236L108.225 359.886C108.704 359.407 110.141 359.407 110.62 359.886L117.803 364.193C118.282 364.671 118.282 364.671 118.282 365.15C118.282 365.15 118.282 365.15 118.282 365.629C118.282 365.629 118.282 365.629 118.282 366.107C118.282 366.586 118.282 366.586 117.803 367.064L111.577 370.414C111.099 370.893 109.662 370.893 109.183 370.414L102 366.107C101.521 365.629 101.521 365.629 101.521 365.15C101.521 365.15 101.521 365.15 101.521 364.671C101.521 364.671 101.521 364.671 101.521 364.193C101.042 363.714 101.521 363.236 102 363.236ZM156.113 394.343L162.338 390.993C162.817 390.514 164.254 390.514 164.732 390.993L171.916 395.3C172.394 395.3 172.394 395.779 172.394 396.257C172.394 396.257 172.394 396.257 172.394 396.736C172.394 396.736 172.394 396.736 172.394 397.214C172.394 397.693 172.394 397.693 171.916 398.171L165.69 401.521C165.211 402 163.775 402 163.296 401.521L156.113 397.214C155.634 396.736 155.634 396.736 155.634 396.257C155.634 396.257 155.634 396.257 155.634 395.779C155.634 395.779 155.634 395.779 155.634 395.3C155.634 394.821 155.634 394.343 156.113 394.343ZM106.789 357.971C106.789 358.45 106.789 358.45 106.789 358.45C106.789 358.929 106.789 358.929 106.31 359.407L100.085 362.757C99.6057 363.236 98.1691 363.236 97.6902 362.757L90.5071 358.45C90.0282 357.971 90.0282 357.971 90.0282 357.493C90.0282 357.493 90.0282 357.493 90.0282 357.014C90.0282 357.014 90.0282 357.014 90.0282 356.536C90.0282 356.057 90.0282 356.057 90.5071 355.579L96.7324 352.229C97.2113 351.75 98.6479 351.75 99.1268 352.229L106.31 356.536C106.31 357.014 106.789 357.493 106.789 357.971ZM203.521 421.621L209.746 418.271C210.225 417.793 211.662 417.793 212.141 418.271L219.324 422.579C219.803 423.057 219.803 423.057 219.803 423.536C219.803 423.536 219.803 423.536 219.803 424.014C219.803 424.014 219.803 424.014 219.803 424.493C219.803 424.971 219.803 424.971 219.324 425.45L213.099 428.8C212.62 429.279 211.183 429.279 210.704 428.8L203.521 424.493C203.042 424.014 203.042 424.014 203.042 423.536C203.042 423.536 203.042 423.536 203.042 423.057C203.042 423.057 203.042 423.057 203.042 422.579C203.042 422.579 203.042 422.1 203.521 421.621ZM179.577 408.221L185.803 404.871C186.282 404.393 187.718 404.393 188.197 404.871L195.38 409.179C195.859 409.657 195.859 409.657 195.859 410.136C195.859 410.136 195.859 410.136 195.859 410.614C195.859 410.614 195.859 410.614 195.859 411.093C195.859 411.571 195.859 411.571 195.38 412.05L189.155 415.4C188.676 415.879 187.239 415.879 186.761 415.4L179.577 411.093C179.099 410.614 179.099 410.614 179.099 410.136C179.099 410.136 179.099 410.136 179.099 409.657C179.099 409.657 179.099 409.657 179.099 409.179C179.099 408.7 179.577 408.221 179.577 408.221ZM191.549 414.921L197.775 411.571C198.254 411.093 199.69 411.093 200.169 411.571L207.352 415.879C207.831 416.357 207.831 416.357 207.831 416.836C207.831 416.836 207.831 416.836 207.831 417.314C207.831 417.314 207.831 417.314 207.831 417.793C207.831 418.271 207.831 418.271 207.352 418.75L201.127 422.1C200.648 422.579 199.211 422.579 198.732 422.1L191.549 417.793C191.07 417.793 191.07 417.314 191.07 416.836C191.07 416.836 191.07 416.836 191.07 416.357C191.07 416.357 191.07 416.357 191.07 415.879C191.07 415.4 191.07 414.921 191.549 414.921ZM215.493 428.8L221.718 425.45C222.197 424.971 223.634 424.971 224.113 425.45L231.296 429.757C231.775 429.757 231.775 430.236 231.775 430.714C231.775 430.714 231.775 430.714 231.775 431.193C231.775 431.193 231.775 431.193 231.775 431.671C231.775 432.15 231.775 432.15 231.296 432.629L225.07 435.979C224.592 436.457 223.155 436.457 222.676 435.979L215.493 431.671C215.014 431.193 215.014 431.193 215.014 430.714C215.014 430.714 215.014 430.714 215.014 430.236C215.014 430.236 215.014 430.236 215.014 429.757C215.014 429.279 215.014 428.8 215.493 428.8ZM227.465 435.5L233.69 432.15C234.169 431.671 235.606 431.671 236.085 432.15L243.268 436.457C243.746 436.936 243.747 436.936 243.747 437.414C243.747 437.414 243.747 437.414 243.747 437.893C243.747 437.893 243.747 437.893 243.747 438.371C243.747 438.85 243.746 438.85 243.268 439.329L237.042 442.679C236.563 443.157 235.127 443.157 234.648 442.679L227.465 438.371C226.986 437.893 226.986 437.893 226.986 437.414C226.986 437.414 226.986 437.414 226.986 436.936C226.986 436.936 226.986 436.936 226.986 436.457C226.986 435.979 226.986 435.979 227.465 435.5ZM168.085 401.043L174.31 397.693C174.789 397.214 176.225 397.214 176.704 397.693L183.887 402C184.366 402.479 184.366 402.479 184.366 402.957C184.366 402.957 184.366 402.957 184.366 403.436C184.366 403.436 184.366 403.436 184.366 403.914C184.366 404.393 184.366 404.393 183.887 404.871L177.662 408.221C177.183 408.7 175.747 408.7 175.268 408.221L168.085 403.914C167.606 403.436 167.606 403.436 167.606 402.957C167.606 402.957 167.606 402.957 167.606 402.479C167.606 402.479 167.606 402.479 167.606 402C167.127 401.521 167.606 401.521 168.085 401.043ZM144.141 387.643L150.366 384.293C150.845 383.814 152.282 383.814 152.761 384.293L159.944 388.6C160.423 389.079 160.423 389.079 160.423 389.557C160.423 389.557 160.423 389.557 160.423 390.036C160.423 390.036 160.423 390.036 160.423 390.514C160.423 390.993 160.423 390.993 159.944 391.471L153.718 394.821C153.239 395.3 151.803 395.3 151.324 394.821L144.141 390.514C143.662 390.514 143.662 390.036 143.662 389.557C143.662 389.557 143.662 389.557 143.662 389.079C143.662 389.079 143.662 389.079 143.662 388.6C143.662 388.121 143.662 387.643 144.141 387.643ZM208.789 436.936L215.014 433.586C215.493 433.107 216.93 433.107 217.408 433.586L224.592 437.893C225.549 437.893 225.549 438.371 225.549 438.85C225.549 438.85 225.549 438.85 225.549 439.329C225.549 439.329 225.549 439.329 225.549 439.807C225.549 440.286 225.549 440.286 225.07 440.764L218.845 444.114C218.366 444.593 216.93 444.593 216.451 444.114L209.268 439.807C208.789 439.329 208.789 439.329 208.789 438.85C208.789 438.85 208.789 438.85 208.789 438.371C208.789 438.371 208.789 438.371 208.789 437.893C208.31 437.893 208.31 437.414 208.789 436.936ZM196.817 430.236L203.042 426.886C203.521 426.407 204.958 426.407 205.437 426.886L213.099 430.714C213.577 430.714 213.577 431.193 213.577 431.671C213.577 431.671 213.577 431.671 213.577 432.15C213.577 432.15 213.577 432.15 213.577 432.629C213.577 433.107 213.577 433.107 213.099 433.586L206.873 436.936C206.394 437.414 204.958 437.414 204.479 436.936L197.296 432.629C196.817 432.15 196.817 432.15 196.817 431.671C196.817 431.671 196.817 431.671 196.817 431.193C196.817 431.193 196.817 431.193 196.817 430.714C196.338 430.714 196.338 430.714 196.817 430.236ZM220.761 444.114L226.986 440.286C227.465 439.807 228.901 439.807 229.38 440.286L236.563 444.593C237.042 445.071 237.042 445.071 237.042 445.55C237.042 445.55 237.042 445.55 237.042 446.029C237.042 446.029 237.042 446.029 237.042 446.507C237.042 446.986 237.042 446.986 236.563 447.464L230.338 450.814C229.859 451.293 228.423 451.293 227.944 450.814L220.761 446.507C220.282 446.029 220.282 446.029 220.282 445.55C220.282 445.55 220.282 445.55 220.282 445.071C220.282 445.071 220.282 445.071 220.282 444.593C220.282 444.593 220.282 444.114 220.761 444.114ZM232.732 450.814L238.958 447.464C239.437 446.986 240.873 446.986 241.352 447.464L248.535 451.771C249.493 451.771 249.493 452.25 249.493 452.25C249.493 452.25 249.493 452.25 249.493 452.729C249.493 452.729 249.493 452.729 249.493 453.207C249.493 453.686 249.493 453.686 249.014 454.164L242.789 457.514C242.31 457.993 240.873 457.993 240.394 457.514L233.211 453.207C232.732 453.207 232.732 452.729 232.732 452.25C232.732 452.25 232.732 452.25 232.732 451.771C232.732 451.771 232.732 451.771 232.732 451.293C232.254 451.293 232.254 451.293 232.732 450.814ZM143.183 374.243L149.408 370.893C149.887 370.414 151.324 370.414 151.803 370.893L163.296 377.114C163.775 377.114 163.775 377.593 163.775 378.071C163.775 378.071 163.775 378.071 163.775 378.55C163.775 378.55 163.775 378.55 163.775 379.029C163.775 379.507 163.775 379.507 163.296 379.986L157.07 383.336C156.592 383.814 155.155 383.814 154.676 383.336L143.662 376.636C143.183 376.636 143.183 376.157 143.183 375.679C143.183 375.679 143.183 375.679 143.183 375.2C143.183 375.2 143.183 375.2 143.183 374.721C142.704 374.721 142.704 374.721 143.183 374.243ZM121.634 386.686L127.859 383.336C128.338 382.857 129.775 382.857 130.254 383.336L141.268 390.036C141.747 390.036 141.747 390.514 141.747 390.993C141.747 390.993 141.747 390.993 141.747 391.471C141.747 391.471 141.747 391.471 141.747 391.95C141.747 392.429 141.747 392.429 141.268 392.907L135.042 396.257C134.563 396.736 133.127 396.736 132.648 396.257L121.634 389.557C121.155 389.079 121.155 389.079 121.155 388.6C121.155 388.6 121.155 388.6 121.155 388.121C121.155 388.121 121.155 388.121 121.155 387.643C121.155 387.643 121.155 387.164 121.634 386.686ZM90.986 369.457L97.2113 366.107C97.6902 365.629 99.1268 365.629 99.6057 366.107L106.789 370.414C107.268 370.893 107.268 370.893 107.268 371.371C107.268 371.371 107.268 371.371 107.268 371.85C107.268 371.85 107.268 371.85 107.268 372.329C107.268 372.807 107.268 372.807 106.789 373.286L100.563 376.636C100.085 377.114 98.6479 377.114 98.1691 376.636L90.986 372.329C90.5071 372.329 90.5071 371.85 90.5071 371.371C90.5071 371.371 90.5071 371.371 90.5071 370.893C90.5071 370.893 90.5071 370.893 90.5071 370.414C90.5071 369.936 90.5071 369.457 90.986 369.457ZM102.958 376.157L109.183 372.807C109.662 372.329 111.099 372.329 111.577 372.807L118.761 377.114C119.239 377.593 119.239 377.593 119.239 378.071C119.239 378.071 119.239 378.071 119.239 378.55C119.239 378.55 119.239 378.55 119.239 379.029C119.239 379.507 119.239 379.507 118.761 379.986L112.535 383.336C112.056 383.814 110.62 383.814 110.141 383.336L102.958 379.029C102.479 378.55 102.479 378.55 102.479 378.071C102.479 378.071 102.479 378.071 102.479 377.593C102.479 377.593 102.479 377.593 102.479 377.114C102.479 377.114 102.479 376.636 102.958 376.157ZM136.958 395.779L143.183 392.429C143.662 391.95 145.099 391.95 145.578 392.429L200.648 424.493C201.606 424.493 201.606 424.493 201.606 424.971C201.606 424.971 201.606 424.971 201.606 425.45C201.606 425.45 201.606 425.45 201.606 425.929C201.606 426.407 201.606 426.407 201.127 426.886L194.901 430.236C194.423 430.714 192.986 430.714 192.507 430.236L137.437 398.171C136.958 397.693 136.958 397.693 136.958 397.214C136.958 397.214 136.958 397.214 136.958 396.736C136.958 396.736 136.958 396.736 136.958 396.257C136.479 396.257 136.958 396.257 136.958 395.779ZM182.93 397.214L189.155 393.864C189.634 393.386 191.07 393.386 191.549 393.864L198.732 398.171C199.211 398.65 199.211 398.65 199.211 399.129C199.211 399.129 199.211 399.129 199.211 399.607C199.211 399.607 199.211 399.607 199.211 400.086C199.211 400.564 199.211 400.564 198.732 401.043L192.507 404.393C192.028 404.871 190.592 404.871 190.113 404.393L182.93 400.086C182.451 400.086 182.451 399.607 182.451 399.129C182.451 399.129 182.451 399.129 182.451 398.65C182.451 398.65 182.451 398.65 182.451 398.171C182.451 397.693 182.451 397.214 182.93 397.214ZM194.901 403.914L201.127 400.564C201.606 400.086 203.042 400.086 203.521 400.564L210.704 404.871C211.183 404.871 211.183 405.35 211.183 405.829C211.183 405.829 211.183 405.829 211.183 406.307C211.183 406.307 211.183 406.307 211.183 406.786C211.183 407.264 211.183 407.264 210.704 407.743L204.479 411.093C204 411.571 202.563 411.571 202.085 411.093L194.901 406.786C194.423 406.307 194.423 406.307 194.423 405.829C194.423 405.829 194.423 405.829 194.423 405.35C194.423 405.35 194.423 405.35 194.423 404.871C193.944 404.393 194.423 404.393 194.901 403.914ZM170.958 390.514L177.183 387.164C177.662 386.686 179.099 386.686 179.577 387.164L187.239 390.993C187.718 391.471 187.718 391.471 187.718 391.95C187.718 391.95 187.718 391.95 187.718 392.429C187.718 392.429 187.718 392.429 187.718 392.907C187.718 393.386 187.718 393.386 187.239 393.864L181.014 397.214C180.535 397.693 179.099 397.693 178.62 397.214L171.437 392.907C170.958 392.429 170.958 392.429 170.958 391.95C170.958 391.95 170.958 391.95 170.958 391.471C170.958 391.471 170.958 391.471 170.958 390.993C170.479 390.993 170.479 390.514 170.958 390.514ZM128.338 345.529C128.338 346.007 128.338 346.007 128.338 346.007C128.338 346.486 128.338 346.486 127.859 346.964L121.634 350.314C121.155 350.793 119.718 350.793 119.239 350.314L112.056 346.007C111.578 346.007 111.577 345.529 111.577 345.05C111.577 345.05 111.577 345.05 111.577 344.571C111.577 344.571 111.577 344.571 111.577 344.093C111.577 343.614 111.578 343.614 112.056 343.136L118.282 339.786C118.761 339.307 120.197 339.307 120.676 339.786L127.859 344.093C128.338 344.571 128.338 345.05 128.338 345.529ZM158.986 383.336L165.211 379.986C165.69 379.507 167.127 379.507 167.606 379.986L174.789 384.293C175.268 384.771 175.268 384.771 175.268 385.25C175.268 385.25 175.268 385.25 175.268 385.729C175.268 385.729 175.268 385.729 175.268 386.207C175.268 386.686 175.268 386.686 174.789 387.164L168.563 390.514C168.085 390.993 166.648 390.993 166.169 390.514L158.986 386.207C158.507 385.729 158.507 385.729 158.507 385.25C158.507 385.25 158.507 385.25 158.507 384.771C158.507 384.771 158.507 384.771 158.507 384.293C158.507 383.814 158.507 383.814 158.986 383.336ZM206.394 411.093L212.62 407.743C213.099 407.264 214.535 407.264 215.014 407.743L222.676 411.571C223.155 412.05 223.155 412.05 223.155 412.529C223.155 412.529 223.155 412.529 223.155 413.007C223.155 413.007 223.155 413.007 223.155 413.486C223.155 413.964 223.155 413.964 222.676 414.443L216.451 417.793C215.972 418.271 214.535 418.271 214.056 417.793L206.873 413.486C206.394 413.486 206.394 413.007 206.394 412.529C206.394 412.529 206.394 412.529 206.394 412.05C206.394 412.05 206.394 412.05 206.394 411.571C205.916 411.571 206.394 411.093 206.394 411.093ZM230.338 424.493L236.563 421.143C237.042 420.664 238.479 420.664 238.958 421.143L246.141 425.45C246.62 425.929 246.62 425.929 246.62 426.407C246.62 426.407 246.62 426.407 246.62 426.886C246.62 426.886 246.62 426.886 246.62 427.364C246.62 427.843 246.62 427.843 246.141 428.321L239.916 431.671C239.437 432.15 238 432.15 237.521 431.671L230.338 427.364C229.859 427.364 229.859 426.886 229.859 426.407C229.859 426.407 229.859 426.407 229.859 425.929C229.859 425.929 229.859 425.929 229.859 425.45C229.859 425.45 229.859 424.971 230.338 424.493ZM218.366 417.793L224.592 414.443C225.07 413.964 226.507 413.964 226.986 414.443L234.169 418.75C234.648 418.75 234.648 419.229 234.648 419.707C234.648 419.707 234.648 419.707 234.648 420.186C234.648 420.186 234.648 420.186 234.648 420.664C234.648 421.143 234.648 421.143 234.169 421.621L227.944 424.971C227.465 425.45 226.028 425.45 225.549 424.971L218.366 420.664C217.887 420.186 217.887 420.186 217.887 419.707C217.887 419.707 217.887 419.707 217.887 419.229C217.887 419.229 217.887 419.229 217.887 418.75C217.887 418.271 217.887 417.793 218.366 417.793Z" fill="#E0DBE1"/>
<path d="M275.831 426.886L283.014 431.193C283.493 431.671 284.93 431.671 285.408 431.193L291.634 427.843C292.113 427.364 292.113 426.886 291.634 426.407L284.451 422.1C283.972 421.621 282.535 421.621 282.056 422.1L275.831 425.45C275.352 425.929 275.352 426.886 275.831 426.886ZM263.859 418.75L270.085 415.4C270.563 414.921 272 414.921 272.479 415.4L279.662 419.707C280.141 420.186 280.141 420.664 279.662 421.143L273.437 424.493C272.958 424.971 271.521 424.971 271.042 424.493L263.859 420.186C263.38 419.707 263.38 419.229 263.859 418.75ZM251.887 412.05L258.113 408.7C258.592 408.221 260.028 408.221 260.507 408.7L267.69 413.007C268.169 413.486 268.169 413.964 267.69 414.443L261.465 417.793C260.986 418.271 259.549 418.271 259.07 417.793L251.887 413.486C251.408 413.007 251.408 412.05 251.887 412.05ZM240.394 404.871L246.62 401.521C247.099 401.043 248.535 401.043 249.014 401.521L256.197 405.829C256.676 406.307 256.676 406.786 256.197 407.264L249.972 410.614C249.493 411.093 248.056 411.093 247.577 410.614L240.394 406.307C239.437 405.829 239.437 405.35 240.394 404.871ZM228.423 398.171L234.648 394.821C235.127 394.343 236.563 394.343 237.042 394.821L244.225 399.129C244.704 399.607 244.704 400.086 244.225 400.564L238 403.914C237.521 404.393 236.085 404.393 235.606 403.914L228.423 399.607C227.465 399.129 227.465 398.65 228.423 398.171ZM216.451 390.993L222.676 387.643C223.155 387.164 224.592 387.164 225.07 387.643L232.254 391.95C232.732 392.429 232.732 392.907 232.254 393.386L226.028 396.736C225.549 397.214 224.113 397.214 223.634 396.736L216.451 392.429C215.493 392.429 215.493 391.471 216.451 390.993ZM204.479 384.293L210.704 380.943C211.183 380.464 212.62 380.464 213.099 380.943L220.761 385.25C221.239 385.729 221.239 386.207 220.761 386.686L214.535 390.036C214.056 390.514 212.62 390.514 212.141 390.036L204.958 385.729C203.521 385.25 203.521 384.771 204.479 384.293ZM192.507 377.593L198.732 374.243C199.211 373.764 200.648 373.764 201.127 374.243L208.789 378.071C209.268 378.55 209.268 379.029 208.789 379.507L202.563 382.857C202.085 383.336 200.648 383.336 200.169 382.857L192.986 378.55C192.028 378.55 192.028 378.071 192.507 377.593ZM180.535 370.414L186.761 367.064C187.239 366.586 188.676 366.586 189.155 367.064L196.817 371.371C197.296 371.85 197.296 372.329 196.817 372.807L190.592 376.157C190.113 376.636 188.676 376.636 188.197 376.157L181.014 371.85C180.056 371.85 180.056 370.893 180.535 370.414ZM164.732 361.321L170.958 357.971C171.437 357.493 172.873 357.493 173.352 357.971L184.366 364.671C184.845 365.15 184.845 365.629 184.366 366.107L178.141 369.457C177.662 369.936 176.225 369.936 175.746 369.457L164.732 362.757C164.254 362.757 164.254 361.8 164.732 361.321ZM113.493 369.936L119.718 366.586C120.197 366.107 121.634 366.107 122.113 366.586L129.296 370.893C129.775 371.371 129.775 371.85 129.296 372.329L123.07 375.679C122.592 376.157 121.155 376.157 120.676 375.679L113.493 371.371C113.014 370.893 113.014 369.936 113.493 369.936ZM102 362.757L108.225 359.407C108.704 358.929 110.141 358.929 110.62 359.407L117.803 363.714C118.282 364.193 118.282 364.671 117.803 365.15L111.577 368.5C111.099 368.979 109.662 368.979 109.183 368.5L102 364.193C101.042 363.714 101.042 363.236 102 362.757ZM90.0282 356.057L96.2536 352.707C96.7324 352.229 98.1691 352.229 98.6479 352.707L105.831 357.014C106.31 357.493 106.31 357.971 105.831 358.45L99.6057 361.8C99.1268 362.279 97.6902 362.279 97.2113 361.8L90.0282 357.493C89.0704 357.014 89.0704 356.536 90.0282 356.057ZM102.958 376.157L109.183 372.807C109.662 372.329 111.099 372.329 111.577 372.807L118.761 377.114C119.239 377.593 119.239 378.071 118.761 378.55L112.535 381.9C112.056 382.379 110.62 382.379 110.141 381.9L102.958 377.593C102 377.114 102 376.636 102.958 376.157ZM90.986 368.979L97.2113 365.629C97.6902 365.15 99.1268 365.15 99.6057 365.629L106.789 369.936C107.268 370.414 107.268 370.893 106.789 371.371L100.563 374.721C100.085 375.2 98.6479 375.2 98.1691 374.721L90.986 370.414C90.0282 370.414 90.0282 369.457 90.986 368.979ZM79.0141 362.279L85.2395 358.929C85.7183 358.45 87.155 358.45 87.6338 358.929L94.8169 363.236C95.2958 363.714 95.2958 364.193 94.8169 364.671L88.5916 368.021C88.1127 368.5 86.6761 368.5 86.1972 368.021L79.0141 363.714C78.5353 363.236 78.5353 362.757 79.0141 362.279ZM260.986 429.757L267.211 425.929C267.69 425.45 269.127 425.45 269.606 425.929L280.62 432.629C281.099 433.107 281.099 433.586 280.62 434.064L274.394 437.414C273.915 437.893 272.479 437.893 272 437.414L260.986 430.714C260.028 430.714 260.028 430.236 260.986 429.757ZM249.014 422.579L255.239 419.229C255.718 418.75 257.155 418.75 257.634 419.229L264.817 423.536C265.296 424.014 265.296 424.493 264.817 424.971L258.592 428.321C258.113 428.8 256.676 428.8 256.197 428.321L249.014 424.014C248.535 424.014 248.535 423.057 249.014 422.579ZM237.042 415.879L243.268 412.529C243.746 412.05 245.183 412.05 245.662 412.529L253.324 416.357C253.803 416.836 253.803 417.314 253.324 417.793L247.099 421.143C246.62 421.621 245.183 421.621 244.704 421.143L237.521 416.836C236.563 416.836 236.563 416.357 237.042 415.879ZM225.07 409.179L231.296 405.829C231.775 405.35 233.211 405.35 233.69 405.829L240.873 410.136C241.352 410.614 241.352 411.093 240.873 411.571L234.648 414.921C234.169 415.4 232.732 415.4 232.254 414.921L225.07 410.614C224.592 410.136 224.592 409.179 225.07 409.179ZM213.099 402L219.324 398.65C219.803 398.171 221.239 398.171 221.718 398.65L228.901 402.957C229.38 403.436 229.38 403.914 228.901 404.393L222.676 407.743C222.197 408.221 220.761 408.221 220.282 407.743L213.099 403.436C212.62 402.957 212.62 402.479 213.099 402ZM201.606 395.3L207.831 391.95C208.31 391.471 209.747 391.471 210.225 391.95L217.408 396.257C217.887 396.736 217.887 397.214 217.408 397.693L211.183 401.043C210.704 401.521 209.268 401.521 208.789 401.043L201.606 396.736C200.648 396.257 200.648 395.779 201.606 395.3ZM189.634 388.121L195.859 384.771C196.338 384.293 197.775 384.293 198.254 384.771L205.437 389.079C205.916 389.557 205.916 390.036 205.437 390.514L199.211 393.864C198.732 394.343 197.296 394.343 196.817 393.864L189.634 389.557C188.676 389.557 188.676 388.6 189.634 388.121ZM177.662 381.421L183.887 378.071C184.366 377.593 185.803 377.593 186.282 378.071L193.465 382.379C193.944 382.857 193.944 383.336 193.465 383.814L187.239 387.164C186.761 387.643 185.324 387.643 184.845 387.164L177.662 382.857C176.704 382.379 176.704 381.9 177.662 381.421ZM165.69 374.721L171.916 371.371C172.394 370.893 173.831 370.893 174.31 371.371L181.493 375.679C181.972 376.157 181.972 376.636 181.493 377.114L175.268 380.464C174.789 380.943 173.352 380.943 172.873 380.464L165.69 376.157C165.211 375.679 165.211 375.2 165.69 374.721ZM153.718 367.543L159.944 364.193C160.423 363.714 161.859 363.714 162.338 364.193L170 368.5C170.479 368.979 170.479 369.457 170 369.936L163.775 373.286C163.296 373.764 161.859 373.764 161.38 373.286L154.197 368.979C153.239 368.979 153.239 368.021 153.718 367.543ZM254.282 437.893L260.507 434.543C260.986 434.064 262.423 434.064 262.901 434.543L270.085 438.85C270.563 439.329 270.563 439.807 270.085 440.286L263.859 443.636C263.38 444.114 261.944 444.114 261.465 443.636L254.282 439.329C253.324 439.329 253.324 438.371 254.282 437.893ZM242.31 431.193L248.535 427.843C249.014 427.364 250.451 427.364 250.93 427.843L258.113 432.15C258.592 432.629 258.592 433.107 258.113 433.586L251.887 436.936C251.408 437.414 249.972 437.414 249.493 436.936L242.31 432.629C241.831 432.15 241.831 431.671 242.31 431.193ZM230.338 424.493L236.563 421.143C237.042 420.664 238.479 420.664 238.958 421.143L246.141 425.45C246.62 425.929 246.62 426.407 246.141 426.886L239.916 430.236C239.437 430.714 238 430.714 237.521 430.236L230.338 425.929C229.859 425.45 229.859 424.971 230.338 424.493ZM218.366 417.314L224.592 413.964C225.07 413.486 226.507 413.486 226.986 413.964L234.169 418.271C234.648 418.75 234.648 419.229 234.169 419.707L227.944 423.057C227.465 423.536 226.028 423.536 225.549 423.057L218.366 418.75C217.887 418.75 217.887 417.793 218.366 417.314ZM232.732 450.336L238.958 446.986C239.437 446.507 240.873 446.507 241.352 446.986L248.535 451.293C249.014 451.771 249.014 452.25 248.535 452.729L242.31 456.079C241.831 456.557 240.394 456.557 239.916 456.079L232.732 451.771C231.775 451.771 231.775 450.814 232.732 450.336ZM220.761 443.636L226.986 440.286C227.465 439.807 228.901 439.807 229.38 440.286L236.563 444.593C237.042 445.071 237.042 445.55 236.563 446.029L230.338 449.379C229.859 449.857 228.423 449.857 227.944 449.379L220.761 445.071C219.803 444.593 219.803 444.114 220.761 443.636ZM208.789 436.936L215.014 433.586C215.493 433.107 216.93 433.107 217.408 433.586L224.592 437.893C225.07 438.371 225.07 438.85 224.592 439.329L218.366 442.679C217.887 443.157 216.451 443.157 215.972 442.679L208.789 438.371C208.31 437.893 208.31 437.414 208.789 436.936ZM196.817 429.757L203.042 426.407C203.521 425.929 204.958 425.929 205.437 426.407L213.099 430.714C213.577 431.193 213.577 431.671 213.099 432.15L206.873 435.5C206.394 435.979 204.958 435.979 204.479 435.5L197.296 431.193C196.338 431.193 196.338 430.236 196.817 429.757ZM121.634 386.686L127.859 383.336C128.338 382.857 129.775 382.857 130.254 383.336L141.268 390.036C141.747 390.514 141.747 390.993 141.268 391.471L135.042 394.821C134.563 395.3 133.127 395.3 132.648 394.821L121.634 388.121C121.155 387.643 121.155 387.164 121.634 386.686ZM206.394 410.614L212.62 406.786C213.099 406.307 214.535 406.307 215.014 406.786L222.197 411.093C222.676 411.571 222.676 412.05 222.197 412.529L215.972 415.879C215.493 416.357 214.056 416.357 213.577 415.879L206.394 411.571C205.916 411.571 205.916 411.093 206.394 410.614ZM194.901 403.914L201.127 400.564C201.606 400.086 203.042 400.086 203.521 400.564L210.704 404.871C211.183 405.35 211.183 405.829 210.704 406.307L204.479 409.657C204 410.136 202.563 410.136 202.085 409.657L194.901 405.35C193.944 404.871 193.944 403.914 194.901 403.914ZM182.93 396.736L189.155 393.386C189.634 392.907 191.07 392.907 191.549 393.386L198.732 397.693C199.211 398.171 199.211 398.65 198.732 399.129L192.507 402.479C192.028 402.957 190.592 402.957 190.113 402.479L182.93 398.171C181.972 397.693 181.972 397.214 182.93 396.736ZM170.958 390.036L177.183 386.686C177.662 386.207 179.099 386.207 179.577 386.686L187.239 390.514C187.718 390.993 187.718 391.471 187.239 391.95L181.014 395.3C180.535 395.779 179.099 395.779 178.62 395.3L171.437 390.993C170 390.993 170 390.514 170.958 390.036ZM158.986 383.336L165.211 379.986C165.69 379.507 167.127 379.507 167.606 379.986L174.789 384.293C175.268 384.771 175.268 385.25 174.789 385.729L168.563 389.079C168.085 389.557 166.648 389.557 166.169 389.079L158.986 384.771C158.028 384.293 158.028 383.336 158.986 383.336ZM143.183 374.243L149.408 370.893C149.887 370.414 151.324 370.414 151.803 370.893L163.296 377.114C163.775 377.593 163.775 378.071 163.296 378.55L157.07 381.9C156.592 382.379 155.155 382.379 154.676 381.9L143.662 375.2C142.704 375.2 142.704 374.243 143.183 374.243ZM239.437 442.2L245.662 438.85C246.141 438.371 247.577 438.371 248.056 438.85L259.549 445.071C260.028 445.55 260.028 446.029 259.549 446.507L253.324 449.857C252.845 450.336 251.408 450.336 250.93 449.857L239.916 443.157C238.479 443.157 238.479 442.679 239.437 442.2ZM227.465 435.021L233.69 431.671C234.169 431.193 235.606 431.193 236.085 431.671L243.268 435.979C243.746 436.457 243.746 436.936 243.268 437.414L237.042 440.764C236.563 441.243 235.127 441.243 234.648 440.764L227.465 436.457C226.507 436.457 226.507 435.5 227.465 435.021ZM215.493 428.321L221.718 424.971C222.197 424.493 223.634 424.493 224.113 424.971L231.296 429.279C231.775 429.757 231.775 430.236 231.296 430.714L225.07 434.064C224.592 434.543 223.155 434.543 222.676 434.064L215.493 429.757C215.014 429.279 215.014 428.8 215.493 428.321ZM203.521 421.621L209.746 418.271C210.225 417.793 211.662 417.793 212.141 418.271L219.324 422.579C219.803 423.057 219.803 423.536 219.324 424.014L213.099 427.364C212.62 427.843 211.183 427.843 210.704 427.364L203.521 423.057C203.042 422.579 203.042 422.1 203.521 421.621ZM191.549 414.443L197.775 411.093C198.254 410.614 199.69 410.614 200.169 411.093L207.352 415.4C207.831 415.879 207.831 416.357 207.352 416.836L201.127 420.186C200.648 420.664 199.211 420.664 198.732 420.186L191.549 415.879C191.07 415.879 191.07 414.921 191.549 414.443ZM136.958 395.779L143.183 392.429C143.662 391.95 145.099 391.95 145.578 392.429L200.648 424.493C201.127 424.971 201.127 425.45 200.648 425.929L194.423 429.279C193.944 429.757 192.507 429.757 192.028 429.279L136.958 397.214C136.479 396.736 136.479 395.779 136.958 395.779ZM179.577 407.743L185.803 404.393C186.282 403.914 187.718 403.914 188.197 404.393L195.38 408.7C195.859 409.179 195.859 409.657 195.38 410.136L189.155 413.486C188.676 413.964 187.239 413.964 186.761 413.486L179.577 409.179C179.099 408.7 179.099 408.221 179.577 407.743ZM168.085 401.043L174.31 397.214C174.789 396.736 176.225 396.736 176.704 397.214L183.887 401.521C184.366 402 184.366 402.479 183.887 402.957L177.662 406.786C177.183 407.264 175.747 407.264 175.268 406.786L168.085 402.479C167.127 402 167.127 401.043 168.085 401.043ZM156.113 393.864L162.338 390.514C162.817 390.036 164.254 390.036 164.732 390.514L171.916 394.821C172.394 395.3 172.394 395.779 171.916 396.257L165.69 399.607C165.211 400.086 163.775 400.086 163.296 399.607L156.113 395.3C155.155 394.821 155.155 394.343 156.113 393.864ZM144.141 387.164L150.366 383.814C150.845 383.336 152.282 383.336 152.761 383.814L160.423 387.643C160.901 388.121 160.901 388.6 160.423 389.079L154.197 392.429C153.718 392.907 152.282 392.907 151.803 392.429L144.62 388.121C143.183 388.121 143.183 387.643 144.141 387.164ZM132.169 380.464L138.394 377.114C138.873 376.636 140.31 376.636 140.789 377.114L147.972 381.421C148.451 381.9 148.451 382.379 147.972 382.857L141.747 386.207C141.268 386.686 139.831 386.686 139.352 386.207L132.169 381.9C131.211 381.421 131.211 380.464 132.169 380.464ZM146.535 350.793L152.761 347.443C153.239 346.964 154.676 346.964 155.155 347.443L162.338 351.75C162.817 352.229 162.817 352.707 162.338 353.186L156.113 356.536C155.634 357.014 154.197 357.014 153.718 356.536L146.535 352.229C145.577 351.75 145.577 351.271 146.535 350.793ZM134.563 344.093L140.789 340.743C141.268 340.264 142.704 340.264 143.183 340.743L150.366 344.571C150.845 345.05 150.845 345.529 150.366 346.007L144.141 349.357C143.662 349.836 142.225 349.836 141.747 349.357L134.563 345.05C133.606 345.05 133.606 344.571 134.563 344.093ZM122.592 336.914L128.817 333.564C129.296 333.086 130.732 333.086 131.211 333.564L138.394 337.871C138.873 338.35 138.873 338.829 138.394 339.307L132.169 342.657C131.69 343.136 130.254 343.136 129.775 342.657L122.592 338.35C121.634 338.35 121.634 337.393 122.592 336.914ZM111.577 343.614L117.803 340.264C118.282 339.786 119.718 339.786 120.197 340.264L127.38 344.571C127.859 345.05 127.859 345.529 127.38 346.007L121.155 349.357C120.676 349.836 119.239 349.836 118.761 349.357L111.577 345.05C111.099 344.571 111.099 343.614 111.577 343.614ZM101.042 349.357L107.268 346.007C107.747 345.529 108.704 345.529 109.183 346.007L119.718 351.75C120.197 352.229 121.155 352.229 121.634 351.75L129.775 346.964C130.732 346.486 132.169 346.486 133.127 346.964L151.803 357.971C152.761 358.45 152.761 359.407 151.803 359.886L135.521 369.457C134.563 369.936 133.127 369.936 132.169 369.457L101.042 351.75C100.085 350.793 100.085 349.836 101.042 349.357Z" fill="#FFFEFB"/>
<path opacity="0.7" d="M91.4648 206.743L381.183 374.243V194.779L91.4648 27.7572V206.743Z" fill="#CFE9FF"/>
<path opacity="0.7" d="M91.4648 190.95L381.183 357.971V208.657L91.4648 41.6357V190.95Z" fill="#95ACF4"/>
<path opacity="0.5" d="M247.578 132.086V280.921L91.4649 190.95V41.6357L247.578 132.086Z" fill="#832DF1"/>
<path d="M381.183 182.336V212.007L91.4648 44.9857V14.8357L381.183 182.336Z" fill="#788EFF"/>
<path d="M277.268 213.443L354.366 258.429C358.197 260.821 361.549 259.386 361.549 255.079C361.549 250.771 358.197 245.986 354.366 243.593L276.789 198.607C272.958 196.214 269.606 197.65 269.606 201.957C269.606 205.786 272.958 211.05 277.268 213.443Z" fill="white"/>
<path d="M277.268 239.286L354.845 284.271C358.676 286.664 362.028 285.229 362.028 280.921C362.028 276.614 358.676 271.829 354.845 269.436L277.268 224.45C273.437 222.057 270.085 223.493 270.085 227.8C269.606 231.629 272.958 236.893 277.268 239.286Z" fill="white"/>
<path d="M332.817 297.671L354.845 310.114C358.676 312.507 362.028 311.071 362.028 306.764C362.028 302.457 358.676 297.671 354.845 295.279L332.817 282.357C328.986 279.964 325.634 281.4 325.634 285.707C325.634 290.014 328.507 295.279 332.817 297.671Z" fill="#CFE9FF"/>
<path d="M352.93 275.657C352.93 276.614 353.887 278.05 354.845 278.529C355.803 279.007 356.761 278.529 356.761 277.571C356.761 276.614 355.803 275.179 354.845 274.7C353.887 274.221 352.93 274.7 352.93 275.657Z" fill="#CFCAD4"/>
<path d="M345.747 271.35C345.747 272.307 346.704 273.743 347.662 274.221C348.62 274.7 349.578 274.221 349.578 273.264C349.578 272.307 348.62 270.871 347.662 270.393C346.704 270.393 345.747 270.393 345.747 271.35Z" fill="#CFCAD4"/>
<path d="M338.563 267.521C338.563 268.479 339.521 269.914 340.479 270.393C341.437 270.871 342.394 270.393 342.394 269.436C342.394 268.479 341.437 267.043 340.479 266.564C339.042 266.086 338.563 266.086 338.563 267.521Z" fill="#CFCAD4"/>
<path d="M330.901 263.214C330.901 264.171 331.859 265.607 332.817 266.086C333.775 266.564 334.732 266.086 334.732 265.129C334.732 264.171 333.775 262.736 332.817 262.257C331.859 261.779 330.901 262.257 330.901 263.214Z" fill="#CFCAD4"/>
<path d="M323.718 258.907C323.718 259.864 324.676 261.3 325.634 261.779C326.592 262.257 327.549 261.779 327.549 260.821C327.549 259.864 326.592 258.429 325.634 257.95C324.676 257.471 323.718 257.95 323.718 258.907Z" fill="#CFCAD4"/>
<path d="M316.535 254.6C316.535 255.557 317.493 256.993 318.451 257.471C319.409 257.95 320.366 257.471 320.366 256.514C320.366 255.557 319.409 254.121 318.451 253.643C317.014 253.164 316.535 253.643 316.535 254.6Z" fill="#CFCAD4"/>
<path d="M309.352 250.293C309.352 251.25 310.31 252.686 311.268 253.164C312.225 253.643 313.183 253.164 313.183 252.207C313.183 251.25 312.225 249.814 311.268 249.336C309.831 248.857 309.352 249.336 309.352 250.293Z" fill="#CFCAD4"/>
<path d="M301.69 246.464C301.69 247.421 302.648 248.857 303.606 249.336C304.563 249.814 305.521 249.336 305.521 248.379C305.521 247.421 304.563 245.986 303.606 245.507C302.648 245.029 301.69 245.029 301.69 246.464Z" fill="#CFCAD4"/>
<path d="M354.366 248.379V252.686C354.366 253.643 353.887 253.643 352.93 253.164C351.972 252.686 351.493 251.729 351.014 251.25V246.464L350.056 245.986V250.293V252.207L350.535 252.686V251.729C351.014 252.686 351.493 253.164 352.451 254.121C353.887 254.6 354.366 254.121 354.366 253.164V248.857V248.379Z" fill="#CFCAD4"/>
<path d="M345.268 247.9C345.268 246.943 345.747 246.943 346.704 247.9C348.141 248.857 348.62 248.379 348.62 247.421C348.62 246.464 347.662 245.029 346.225 244.071C344.789 243.114 343.831 243.593 343.831 245.029L344.789 245.507C344.789 244.55 345.268 244.071 346.225 245.029C347.183 245.507 347.662 246.464 347.662 246.943C347.662 247.421 347.183 247.9 346.225 246.943C344.789 245.986 343.831 246.464 343.831 247.421C343.831 248.379 344.789 249.814 346.225 250.771C348.141 251.729 348.62 251.25 348.62 250.293L347.662 249.814C347.662 250.293 347.183 250.771 346.225 250.293C345.747 249.336 345.268 248.379 345.268 247.9Z" fill="#CFCAD4"/>
<path d="M342.394 245.029C342.394 246.464 341.916 246.943 340.479 245.986C339.042 245.507 338.563 244.071 338.563 243.593L337.606 243.114C337.606 244.071 338.563 245.507 340 246.464C341.916 247.421 342.394 246.464 342.394 245.029V244.55C342.394 242.636 341.437 241.2 340 239.764C338.085 238.807 337.606 239.764 337.606 241.2V241.679L342.394 245.029ZM342.394 244.55L339.042 242.636C339.042 241.2 339.521 240.721 340.958 241.2C341.916 241.679 342.394 243.114 342.394 244.55Z" fill="#CFCAD4"/>
<path d="M333.775 236.414V237.371C335.211 237.85 335.69 238.807 335.69 239.286V244.071L336.648 244.55V240.243V238.329L336.169 237.85V238.807C335.69 237.85 334.732 237.371 333.775 236.414C334.254 236.893 333.775 236.893 333.775 236.414Z" fill="#CFCAD4"/>
<path d="M329.465 240.243L330.423 240.721V231.629L329.465 231.15V240.243Z" fill="#CFCAD4"/>
<path d="M325.155 237.85L327.549 239.286V230.193L325.155 228.757C322.761 227.321 321.803 227.8 321.803 231.15V231.629C321.803 234.5 322.761 236.414 325.155 237.85ZM325.155 237.371C323.24 236.414 322.282 234.979 322.282 232.107V231.629C322.282 229.236 323.24 228.757 325.155 229.714L326.592 230.671V238.329L325.155 237.371Z" fill="#CFCAD4"/>
<path opacity="0.8" d="M102 155.057L170.479 194.779V180.9L102 141.179V155.057Z" fill="#95ACF4"/>
<path d="M166.648 182.814L105.352 147.4V153.143L166.648 188.557V182.814Z" fill="#291B2A"/>
<path d="M67.5211 272.307L70.3944 270.393C72.3099 269.436 74.2253 267.521 75.662 266.086C77.5775 263.693 79.0141 261.3 80.4507 258.429C81.8873 255.557 82.3662 252.207 82.3662 249.336V183.293C82.3662 180.421 83.3239 177.071 84.7606 173.721C86.1972 170.85 87.6338 168.457 89.5493 166.064C90.9859 164.15 92.9014 162.714 95.2958 161.279L118.282 148.357L163.775 174.679L140.789 187.6C138.873 188.557 136.958 190.471 135.042 192.386C133.127 194.779 131.211 197.171 130.254 200.043C128.817 203.393 127.859 206.743 127.859 209.614V275.657C127.859 278.529 126.901 281.879 125.944 284.75C124.986 287.621 123.07 290.014 121.155 292.407C119.718 294.321 117.803 295.757 115.887 296.714L113.014 298.629C109.662 300.543 106.789 300.543 104.394 299.586L58.9014 273.264C61.2958 274.221 64.169 274.221 67.5211 272.307Z" fill="url(#paint7_linear_11_191)"/>
<path d="M96.7324 262.257C99.1268 263.693 100.085 266.086 100.085 269.914V291.45C100.085 295.279 101.521 298.15 103.915 299.586L58.4226 273.264C56.0282 271.829 54.5916 268.957 54.5916 265.129V243.593C54.5916 239.764 53.1549 236.893 51.2395 235.936L96.7324 262.257Z" fill="#DAD7D7"/>
<path d="M42.6197 236.414C45.9718 234.5 49.3239 234.021 51.7183 235.457L97.2112 261.779C94.8169 260.343 91.4648 260.821 88.1127 262.736L45.493 287.143L-2.28882e-05 260.821L42.6197 236.414Z" fill="#F8F5F4"/>
<path d="M95.7747 261.3C99.1268 262.257 101.042 265.129 101.042 269.914V291.45C101.042 299.107 106.789 302.457 113.493 298.629L116.366 296.714C123.07 292.886 128.338 283.314 128.338 275.657V209.614C128.338 201.479 134.085 191.907 140.789 187.6L163.775 174.679V175.157L140.789 188.079C134.085 191.907 128.817 201.479 128.817 209.136V275.179C128.817 283.314 123.07 292.886 116.366 297.193L113.493 299.107C106.31 302.936 100.563 300.064 100.563 291.929V270.393C100.563 265.607 98.6479 262.736 95.2958 262.257C95.2958 261.779 95.2958 261.3 95.7747 261.3Z" fill="#F3F0F0"/>
<path d="M45.493 287.143L88.1127 262.736C95.2958 258.907 101.042 261.779 101.042 269.914V274.221H100.563V270.393C100.563 262.736 94.8169 259.386 88.1127 263.214L45.493 287.621L-1.52588e-05 261.3V260.821L45.493 287.143Z" fill="#F3F0F0"/>
<path d="M108.225 201L104.873 199.086V200.043L108.225 201.957V201ZM112.535 210.571L118.282 213.921V214.879L111.577 211.05L109.183 209.614V208.657L112.535 210.571ZM107.746 205.307V204.35L110.62 205.786L112.535 206.743V207.7L110.62 206.743L107.746 205.307ZM113.493 207.7L118.282 210.093V211.05L113.493 208.657V207.7ZM111.099 203.871L109.183 202.914V201.957L112.535 203.871L117.803 207.221V208.179L111.099 203.871ZM116.845 203.393L112.535 201V200.043L116.845 202.436L118.282 203.393V204.35L116.845 203.393ZM107.746 198.607L106.31 197.65V196.693L108.225 197.65L111.099 199.086V200.043L107.746 198.607ZM104.394 205.786L107.746 207.7V208.657L104.394 206.743V205.786ZM111.577 222.057L118.282 225.886V226.843L111.577 223.014V222.057ZM118.282 229.236V230.193L116.845 229.236L111.099 225.886V224.929L115.887 227.8L118.282 229.236ZM104.394 211.05L109.183 213.921L112.535 215.836V216.793L109.183 214.879L104.394 212.007V211.05ZM105.352 221.579L106.789 222.057L110.141 223.971V224.929L107.268 223.493L105.352 222.536V221.579ZM113.972 220.143L117.803 222.536V223.493L113.972 221.1L109.662 218.707V217.75L113.972 220.143ZM108.225 216.793V217.75L105.831 216.314V215.357L108.225 216.793ZM110.141 222.057L105.831 219.664V218.707L110.141 221.1V222.057ZM118.282 220.143L113.972 217.75V216.793L118.282 219.186V220.143ZM105.831 230.671L110.141 233.064V234.021L105.831 231.629V230.671ZM106.789 238.329L104.394 236.893V235.936L106.789 237.371V238.329ZM113.014 242.157L108.225 239.286V238.329L113.014 241.2V242.157ZM105.352 233.543L109.662 235.936V236.893L105.352 234.5V233.543ZM118.282 234.979L116.366 234.021L111.099 231.15V230.193L115.887 233.064L118.282 234.5V234.979ZM110.62 236.893L115.887 240.243L117.803 241.2V242.157L115.408 240.721L110.62 237.85V236.893ZM118.282 238.329L114.93 236.414L111.577 234.5V233.543L116.845 236.414L118.282 237.371V238.329ZM118.282 245.029L114.451 242.636V241.679L118.282 244.071V245.029ZM105.352 226.843L106.789 227.8H107.268L110.141 229.236V230.193L107.268 228.757H106.789L105.352 227.8V226.843ZM108.225 243.114L111.099 244.55V245.507L107.746 243.593L106.31 242.636V241.679L108.225 243.114ZM112.056 245.507L116.366 247.9L117.803 248.857V249.814L116.366 248.857L112.056 246.464V245.507ZM113.972 249.814L118.282 252.207V253.164L113.972 250.771V249.814ZM108.225 246.464L113.014 249.336V250.293L108.225 247.421L104.873 245.507V244.071L108.225 246.464ZM112.535 256.514L108.225 254.121V253.164L112.535 255.557V256.514ZM118.282 259.864L113.972 257.471V256.514L118.282 258.907V259.864ZM109.662 250.771L112.535 252.207V253.164L109.662 251.729L107.746 250.771V249.814L109.662 250.771ZM118.282 256.514L113.493 254.121V253.164L118.282 255.557V256.514ZM93.8592 199.564L97.2113 201.479V202.436L93.8592 200.521V199.564ZM93.8592 189.514L95.7747 190.471V191.429L93.8592 190.471V189.514ZM97.2113 191.429L99.1268 192.386V193.343L97.2113 192.386V191.429ZM93.8592 192.864L97.2113 194.779V195.736L93.8592 193.821V192.864ZM99.1268 199.086L100.563 200.043V201L99.1268 200.043V199.086ZM97.6902 199.086L93.8592 197.171V196.214L97.6902 198.129V199.086ZM93.8592 215.357L96.7324 217.271V218.229L93.8592 216.314V215.357ZM93.8592 212.007L99.6056 215.357V216.314L93.8592 212.964V212.007ZM98.6479 217.75L100.563 218.707V219.664L98.6479 218.707V217.75ZM98.6479 212.007L93.8592 209.136V208.179L98.6479 211.05V212.007ZM97.2113 207.7L93.8592 205.786V204.829L97.2113 206.743V207.7ZM100.085 224.45L98.169 223.493V222.536L100.085 223.493V224.45ZM97.2113 223.014L94.338 221.1V220.143L97.2113 222.057V223.014ZM97.6902 229.714L94.338 227.8V226.843L97.6902 228.757V229.714ZM98.169 226.843L94.338 224.45V223.493L98.169 225.886V226.843ZM99.1268 226.843L100.563 227.8V228.757L99.1268 227.8V226.843ZM93.8592 230.193L98.6479 233.064V234.021L93.8592 231.15V230.193ZM98.6479 229.714L100.085 230.671V231.629L98.6479 230.671V229.714ZM97.6902 244.55L93.8592 242.636V241.679L97.6902 243.593V244.55ZM100.085 245.986L98.6479 245.029V244.071L100.085 245.029V245.986ZM99.1268 238.807L97.2113 237.85V236.893L99.1268 237.85V238.807ZM93.8592 238.329L97.2113 240.243V241.2L93.8592 239.286V238.329ZM93.8592 235.936V234.979L95.7747 235.936V236.893L93.8592 235.936ZM97.2113 247.9L93.8592 245.986V245.029L97.2113 246.943V247.9ZM88.5916 196.693L90.0282 197.65V198.607L88.5916 197.65V196.693ZM89.0704 186.643L90.9859 187.6V188.557L89.0704 187.6V186.643ZM89.0704 189.993L90.5071 190.95V191.429L89.0704 190.471V189.993ZM90.5071 194.3V195.257L88.5916 194.3V193.343L90.5071 194.3ZM89.0704 212.486L90.0282 212.964V213.921L89.0704 213.443V212.486ZM88.5916 208.657L90.5071 209.614V210.571L88.5916 209.614V208.657ZM89.5493 206.743L88.5916 206.264V205.307L89.5493 205.786V206.743ZM90.0282 203.871L88.5916 202.914V201.957L90.0282 202.914V203.871ZM90.0282 218.707L89.0704 218.229V217.271L90.0282 217.75V218.707ZM90.5071 225.886L89.0704 224.929V223.971L90.5071 224.929V225.886ZM90.9859 222.536L89.0704 221.1V220.143L90.9859 221.579V222.536ZM89.0704 227.321L90.0282 227.8V228.757L89.0704 228.279V227.321ZM90.5071 240.243L88.5916 239.286V238.329L90.5071 239.286V240.243ZM89.0704 235.457L90.5071 236.414V237.371L89.0704 236.414V235.457ZM89.0704 232.586V231.629L90.9859 232.586V233.543L89.0704 232.586ZM90.0282 243.593L88.5916 242.636V241.679L90.0282 242.636V243.593ZM123.07 217.271L121.634 216.314V215.357L123.07 216.314V217.271ZM123.07 207.221L122.113 206.743V205.786L123.07 206.264V207.221ZM123.07 210.571L121.634 209.614V208.657L123.07 209.614V210.571ZM123.07 212.964V213.921L122.113 213.443V212.486L123.07 212.964ZM123.07 233.064L121.155 232.107V231.15L123.07 232.107V233.064ZM123.07 229.714L122.113 229.236V228.279L123.07 228.757V229.714ZM121.155 223.971L123.07 225.407V226.364L121.155 224.929V223.971ZM121.634 221.1L123.07 222.057V223.014L121.634 222.057V221.1ZM121.634 235.936L123.549 236.893V237.85L121.634 236.893V235.936ZM121.634 243.114L123.07 244.071V245.029L121.634 244.071V243.114ZM122.592 240.243L123.549 240.721V241.679L122.592 241.2V240.243ZM123.07 247.9L121.155 246.943V245.986L123.07 246.943V247.9ZM122.113 257.471L123.07 257.95V258.907L122.113 258.429V257.471ZM123.07 256.036L121.634 255.079V254.121L123.07 255.079V256.036ZM122.113 252.207V251.25L123.07 251.729V252.686L122.113 252.207ZM121.634 260.821L123.07 261.779V262.736L121.634 261.779V260.821Z" fill="#CFCAD4"/>
<path d="M64.169 254.6L60.8169 252.686L59.8592 253.164L63.2113 255.079L64.169 254.6ZM62.2535 260.821L67.5211 263.693L66.5634 264.171L60.338 260.821L58.4225 259.386L59.3803 258.907L62.2535 260.821ZM60.338 256.514L61.2958 256.036L63.6901 257.471L65.6056 258.429L64.6479 258.907L62.7324 257.95L60.338 256.514ZM66.5634 259.386L70.8732 261.779L69.9155 262.257L65.6056 259.864L66.5634 259.386ZM66.5634 256.514L64.6479 255.557L65.6056 255.079L68.4789 256.993L73.7465 259.864L72.7887 260.343L66.5634 256.514ZM74.7042 257.95L70.3944 255.557L71.3521 255.079L75.662 257.471L77.0986 258.429L76.1409 258.907L74.7042 257.95ZM66.5634 253.164L65.1268 252.207L66.0845 251.729L68 252.686L70.3944 254.121L69.4366 254.6L66.5634 253.164ZM54.5916 256.036L57.9437 257.95L56.9859 258.429L53.6338 256.514L54.5916 256.036ZM49.8028 266.564L56.0282 270.393L55.0704 270.871L48.8451 267.043L49.8028 266.564ZM53.1549 271.829L52.1972 272.307L50.7606 271.35L45.493 268.479L46.4507 268L50.7606 270.393L53.1549 271.829ZM49.8028 259.386L54.5916 262.257L57.4648 264.171L56.507 264.65L53.6338 262.736L48.8451 259.864L49.8028 259.386ZM40.7042 265.129L41.662 265.607L45.0141 267.521L44.0563 268L41.662 266.564L39.7465 265.607L40.7042 265.129ZM55.5493 266.086L59.3803 268.479L58.4225 268.957L54.5916 266.564L50.2817 264.171L51.2394 263.693L55.5493 266.086ZM50.2817 263.214L49.3239 263.693L46.9296 262.257L47.8873 261.779L50.2817 263.214ZM47.8873 266.086L44.0563 263.693L45.0141 263.214L48.8451 265.607L47.8873 266.086ZM61.7747 267.043L57.9437 264.65L58.9014 264.171L62.7324 266.564L61.7747 267.043ZM47.4085 275.179L45.9718 274.221L41.1831 271.35L42.1408 270.871L46.4507 273.264L48.3662 274.221L47.4085 275.179ZM35.9155 267.521L37.3521 268.479H37.831L40.2254 269.914L39.2676 270.393L36.8732 268.957H36.3944L34.9577 268L35.9155 267.521ZM45.0141 250.771L47.8873 252.686L46.9296 253.164L44.0563 251.25L45.0141 250.771ZM54.1127 245.029L56.0282 245.986L55.0704 246.464L53.1549 245.507L54.1127 245.029ZM57.4648 246.943L58.9014 247.9L57.9437 248.379L56.507 247.421L57.4648 246.943ZM51.2394 246.943L54.1127 248.857L53.1549 249.336L50.2817 247.421L51.2394 246.943ZM52.6761 251.25L54.1127 252.207L53.1549 252.686L51.7183 251.729L52.6761 251.25ZM50.7606 251.25L47.4085 249.336L48.3662 248.857L51.7183 250.771L50.7606 251.25ZM30.169 258.907L33.0423 260.343L32.0845 260.821L29.2113 259.386L30.169 258.907ZM33.5211 256.993L38.7887 260.343L37.831 260.821L32.5634 257.471L33.5211 256.993ZM34.4789 261.3L35.9155 262.257L34.9577 262.736L33.5211 261.779L34.4789 261.3ZM40.2254 258.429L35.9155 256.036L36.8732 255.557L41.1831 257.95L40.2254 258.429ZM42.1408 255.557L39.2676 253.643L40.2254 253.164L43.0986 255.079L42.1408 255.557ZM30.6479 265.607L29.2113 264.65L30.169 264.171L31.6056 265.129L30.6479 265.607ZM27.7746 263.693L24.9014 262.257L25.8592 261.779L28.7324 263.214L27.7746 263.693ZM40.2254 247.9L41.662 248.857L40.7042 249.336L39.2676 248.379L40.2254 247.9ZM49.3239 242.157L51.2394 243.114L50.2817 243.593L48.3662 242.636L49.3239 242.157ZM46.4507 244.071L47.8873 245.029L46.9296 245.507L45.493 244.55L46.4507 244.071ZM45.0141 246.943L44.0563 247.421L42.6197 246.464L43.5775 245.986L45.0141 246.943ZM25.3803 256.036L26.3381 256.514L25.3803 256.993L24.4226 256.514L25.3803 256.036ZM28.7324 254.121L30.169 255.079L29.2113 255.557L27.7746 254.6L28.7324 254.121ZM31.6056 253.643L30.6479 253.164L31.6056 252.686L32.5634 253.164L31.6056 253.643ZM35.4366 251.729L34 250.771L34.9577 250.293L36.3944 251.25L35.4366 251.729ZM21.0705 259.864L20.1127 259.386L21.0705 258.907L22.0282 259.386L21.0705 259.864ZM71.3521 266.564L69.9155 265.607L70.8732 265.129L72.3099 266.086L71.3521 266.564ZM80.9296 261.3L79.9718 260.821L80.9296 260.343L81.8873 260.821L80.9296 261.3ZM77.5775 263.214L76.1409 262.257L77.0986 261.779L78.5352 262.736L77.5775 263.214ZM75.1831 264.65L74.2254 265.129L73.2676 264.65L74.2254 264.171L75.1831 264.65ZM56.9859 275.179L55.5493 274.221L56.507 273.743L57.9437 274.7L56.9859 275.179ZM59.8592 273.264L58.9014 272.786L59.8592 272.307L60.8169 272.786L59.8592 273.264ZM61.7747 269.914L63.6901 270.871L62.7324 271.35L60.8169 270.393L61.7747 269.914ZM65.6056 268.479L67.0423 269.436L66.0845 269.914L64.6479 268.957L65.6056 268.479ZM51.2394 276.614L53.1549 277.571L52.1972 278.05L50.7606 277.093L51.2394 276.614Z" fill="#CFCAD4"/>
<path opacity="0.8" d="M102 112.464L170.479 151.707V137.829L102 98.5857V112.464Z" fill="#95ACF4"/>
<path d="M166.648 139.743L105.352 104.329V110.071L166.648 145.964V139.743Z" fill="#291B2A"/>
<path d="M170.479 135.914C170.479 136.871 170 137.829 168.563 138.307L88.1127 184.729C85.7183 186.164 82.3662 186.164 80.4507 185.207L32.0845 157.45C31.1267 156.971 30.6479 156.014 30.6479 155.057C30.6479 154.579 30.6479 154.1 30.6479 153.621C30.6479 152.664 31.6056 152.186 32.5634 151.229L113.493 105.286C115.887 103.85 119.239 103.85 121.155 104.807L169.521 132.564C170.479 133.043 170.958 133.521 170.958 134.479C170.958 134.957 170.479 135.436 170.479 135.914Z" fill="#E0DBE1"/>
<path d="M113.493 105.286L33.0423 151.707C30.6479 153.143 30.6479 155.057 32.5634 156.014L80.9296 183.771C82.8451 184.729 86.676 184.729 88.5915 183.293L169.042 136.871C171.437 135.436 171.437 133.521 169.521 132.564L121.155 104.807C119.239 103.371 115.408 103.85 113.493 105.286Z" fill="url(#paint8_linear_11_191)"/>
<path d="M41.1831 152.664C40.7042 153.143 40.2254 153.621 40.2254 154.1C40.2254 154.579 40.2254 155.057 41.1831 155.536L44.5352 157.45C45.9718 157.929 47.8873 157.929 49.3239 157.45L60.8169 150.75C61.2958 150.271 61.7747 149.793 61.7747 149.314C61.7747 148.836 61.7746 148.357 60.8169 147.879L57.4648 145.964C56.0282 145.486 54.1127 145.486 52.6761 145.964L41.1831 152.664Z" fill="#F8F5F4"/>
<path d="M137.915 136.871C137.437 137.35 136.958 137.829 136.958 138.307C136.958 138.786 136.958 139.264 137.915 139.743L144.141 143.093C145.577 143.571 147.493 143.571 148.93 143.093L161.38 135.914C161.859 135.436 162.338 134.957 162.338 134.479C162.338 134 162.338 133.521 161.38 133.043L155.155 129.693C153.718 129.214 151.803 129.214 150.366 129.693L137.915 136.871Z" fill="#8A31C9"/>
<path d="M160.423 135.436L147.972 142.614C147.014 143.093 145.099 143.571 144.141 142.614L137.915 139.264C136.958 138.786 136.958 137.829 138.394 136.871L150.845 129.693C151.803 129.214 153.718 128.736 154.676 129.693L160.901 133.043C161.859 134 161.859 134.957 160.423 135.436Z" fill="#FFC440"/>
<g opacity="0.6">
<path d="M150.845 129.693C151.324 129.693 151.324 129.693 150.845 129.693L160.901 134.957C160.901 134.957 160.901 134.957 160.423 135.436L158.507 134L154.676 136.393C155.634 137.35 155.155 138.307 154.197 138.786C152.761 139.743 150.845 139.743 149.887 139.264L145.577 141.657L147.972 143.093H147.493L137.915 137.35C137.915 137.35 137.915 137.35 138.394 136.871L141.268 138.307L145.577 135.914C144.62 134.957 145.099 134 146.056 133.521C147.493 132.564 149.408 132.564 150.366 133.043L153.718 131.129L150.845 129.693ZM148.93 139.264L145.099 136.871L140.789 139.264L145.099 141.657L148.93 139.264ZM153.239 138.786C154.197 138.307 154.676 137.35 153.718 136.871L149.408 139.264C150.845 139.264 152.282 139.264 153.239 138.786ZM145.577 134C144.62 134.479 144.141 135.436 145.099 136.393L149.408 134C148.451 133.521 146.535 133.521 145.577 134ZM149.887 134L145.577 136.393L149.408 138.786L153.718 136.393L149.887 134ZM149.887 133.521L153.718 135.914L157.549 133.521L153.239 131.129L149.887 133.521Z" fill="#D88C1D"/>
</g>
<path d="M91.9436 174.2C89.0344 174.2 86.676 172.914 86.676 171.329C86.676 169.743 89.0344 168.457 91.9436 168.457C94.8529 168.457 97.2112 169.743 97.2112 171.329C97.2112 172.914 94.8529 174.2 91.9436 174.2Z" fill="#9B2C2C"/>
<path d="M83.8028 178.507C80.8936 178.507 78.5352 177.222 78.5352 175.636C78.5352 174.05 80.8936 172.764 83.8028 172.764C86.712 172.764 89.0704 174.05 89.0704 175.636C89.0704 177.222 86.712 178.507 83.8028 178.507Z" fill="#FFC440"/>
<path d="M60.8169 163.193C61.2957 163.193 61.7746 163.193 61.7746 163.671L64.6479 165.107C65.1267 165.107 65.1267 165.586 65.1267 165.586C65.1267 165.586 65.1267 166.064 64.6479 166.064L63.6901 166.543C63.2112 166.543 62.7324 167.021 62.7324 167.021C62.2535 167.021 61.7746 167.021 61.7746 166.543L58.9014 165.107C58.4225 165.107 58.4225 164.629 58.4225 164.629C58.4225 164.629 58.4225 164.15 58.9014 164.15L59.8591 163.671C59.8591 163.193 60.338 163.193 60.8169 163.193ZM61.2957 163.671C60.8169 163.193 60.338 163.193 59.8591 163.671L59.3803 164.15C58.9014 164.629 58.9014 164.629 59.3803 165.107L62.2535 166.543C62.7324 167.021 63.2112 167.021 63.6901 166.543L64.169 166.064C64.6479 165.586 64.6479 165.586 64.169 165.107L61.2957 163.671Z" fill="#FFD85A"/>
<path d="M64.6479 160.8C65.1267 160.8 65.6056 160.8 65.6056 161.279L68.4788 162.714C68.9577 162.714 68.9577 163.193 68.9577 163.193C68.9577 163.193 68.9577 163.671 68.4788 163.671L67.5211 164.15C67.0422 164.15 66.5634 164.629 66.5634 164.629C66.0845 164.629 65.6056 164.629 65.6056 164.15L62.7324 162.714C62.2535 162.714 62.2535 162.236 62.2535 162.236C62.2535 162.236 62.2535 161.757 62.7324 161.757L63.6901 161.279C63.6901 160.8 64.169 160.8 64.6479 160.8ZM65.1267 161.757C64.6479 161.279 64.169 161.279 63.6901 161.757L63.2112 162.236C62.7324 162.714 62.7324 162.714 63.2112 163.193L66.0845 164.629C66.5633 165.107 67.0422 165.107 67.5211 164.629L68 164.15C68.4788 163.671 68.4788 163.671 68 163.193L65.1267 161.757Z" fill="#FFD85A"/>
<path d="M68.4788 158.407C68.9577 158.407 69.4366 158.407 69.4366 158.886L72.3098 160.321C72.7887 160.321 72.7887 160.8 72.7887 160.8C72.7887 160.8 72.7887 161.279 72.3098 161.279L71.3521 161.757C70.8732 161.757 70.3943 162.236 70.3943 162.236C69.9155 162.236 69.4366 162.236 69.4366 161.757L66.5634 160.321C66.0845 160.321 66.0845 159.843 66.0845 159.843C66.0845 159.843 66.0845 159.364 66.5634 159.364L67.5211 158.886C68 158.886 68.4788 158.407 68.4788 158.407ZM69.4366 159.364C68.9577 158.886 68.4788 158.886 68 159.364L67.5211 159.843C67.0422 160.321 67.0422 160.321 67.5211 160.8L70.3943 162.236C70.8732 162.714 71.3521 162.714 71.831 162.236L72.3098 161.757C72.7887 161.279 72.7887 161.279 72.3098 160.8L69.4366 159.364Z" fill="#FFD85A"/>
<path d="M72.7887 156.493C73.2676 156.493 73.7465 156.493 73.7465 156.971L76.6197 158.407C77.0986 158.407 77.0986 158.886 77.0986 158.886C77.0986 158.886 77.0986 159.364 76.6197 159.364L75.6619 159.843C75.1831 159.843 74.7042 160.321 74.7042 160.321C74.2253 160.321 73.7465 160.321 73.7465 159.843L70.8732 158.407C70.3943 158.407 70.3943 157.929 70.3943 157.929C70.3943 157.929 70.3943 157.45 70.8732 157.45L71.831 156.971C71.831 156.493 72.3098 156.493 72.7887 156.493ZM73.2676 156.971C72.7887 156.493 72.3098 156.493 71.831 156.971L71.3521 157.45C70.8732 157.929 70.8732 157.929 71.3521 158.407L74.2253 159.843C74.7042 160.321 75.1831 160.321 75.6619 159.843L76.1408 159.364C76.6197 158.886 76.6197 158.886 76.1408 158.407L73.2676 156.971Z" fill="#FFD85A"/>
<path d="M82.3662 150.75C82.845 150.75 83.3239 150.75 83.3239 151.229L86.1972 152.664C86.676 152.664 86.676 153.143 86.676 153.143C86.676 153.143 86.676 153.621 86.1972 153.621L85.2394 154.1C84.7605 154.1 84.2817 154.579 84.2817 154.579C83.8028 154.579 83.3239 154.579 83.3239 154.1L80.4507 152.664C79.9718 152.664 79.9718 152.186 79.9718 152.186C79.9718 152.186 79.9718 151.707 80.4507 151.707L81.4084 151.229C81.4084 150.75 81.8873 150.75 82.3662 150.75ZM82.845 151.229C82.3662 150.75 81.8873 150.75 81.4084 151.229L80.9296 151.707C80.4507 152.186 80.4507 152.186 80.9296 152.664L83.8028 154.1C84.2817 154.579 84.7605 154.579 85.2394 154.1L85.7183 153.621C86.1972 153.143 86.1972 153.143 85.7183 152.664L82.845 151.229Z" fill="#FFD85A"/>
<path d="M86.1972 148.357C86.676 148.357 87.1549 148.357 87.1549 148.836L90.0281 150.271C90.507 150.271 90.507 150.75 90.507 150.75C90.507 150.75 90.507 151.229 90.0281 151.229L89.0704 151.707C88.5915 151.707 88.1127 152.186 88.1127 152.186C87.6338 152.186 87.1549 152.186 87.1549 151.707L84.2817 150.271C83.8028 150.271 83.8028 149.793 83.8028 149.793C83.8028 149.793 83.8028 149.314 84.2817 149.314L85.2394 148.836C85.2394 148.836 85.7183 148.357 86.1972 148.357ZM86.676 149.314C86.1972 148.836 85.7183 148.836 85.2394 149.314L84.7605 149.793C84.2817 150.271 84.2817 150.271 84.7605 150.75L87.6338 152.186C88.1126 152.664 88.5915 152.664 89.0704 152.186L89.5493 151.707C90.0281 151.229 90.0281 151.229 89.5493 150.75L86.676 149.314Z" fill="#FFD85A"/>
<path d="M90.0281 146.443C90.507 146.443 90.9859 146.443 90.9859 146.921L93.8591 148.357C94.338 148.357 94.338 148.836 94.338 148.836C94.338 148.836 94.338 149.314 93.8591 149.314L92.9014 149.793C92.4225 149.793 91.9436 150.271 91.9436 150.271C91.4648 150.271 90.9859 150.271 90.9859 149.793L88.1127 148.357C87.6338 148.357 87.6338 147.879 87.6338 147.879C87.6338 147.879 87.6338 147.4 88.1127 147.4L89.0704 146.921C89.0704 146.443 89.5493 146.443 90.0281 146.443ZM90.507 146.921C90.0282 146.443 89.5493 146.443 89.0704 146.921L88.5915 147.4C88.1127 147.879 88.1127 147.879 88.5915 148.357L91.4648 149.793C91.9436 150.271 92.4225 150.271 92.9014 149.793L93.3803 149.314C93.8591 148.836 93.8591 148.836 93.3803 148.357L90.507 146.921Z" fill="#FFD85A"/>
<path d="M93.8591 144.05C94.338 144.05 94.8169 144.05 94.8169 144.529L97.6901 145.964C98.169 145.964 98.169 146.443 98.169 146.443C98.169 146.443 98.169 146.921 97.6901 146.921L96.7324 147.4C96.2535 147.4 95.7746 147.879 95.7746 147.879C95.2958 147.879 94.8169 147.879 94.8169 147.4L91.9436 145.964C91.4648 145.964 91.4648 145.486 91.4648 145.486C91.4648 145.486 91.4648 145.007 91.9436 145.007L92.9014 144.529C93.3803 144.05 93.8591 144.05 93.8591 144.05ZM94.8169 144.529C94.338 144.05 93.8591 144.05 93.3803 144.529L92.9014 145.007C92.4225 145.486 92.4225 145.486 92.9014 145.964L95.7746 147.4C96.2535 147.879 96.7324 147.879 97.2112 147.4L97.6901 146.921C98.169 146.443 98.169 146.443 97.6901 145.964L94.8169 144.529Z" fill="#FFD85A"/>
<path d="M103.437 138.307C103.915 138.307 104.394 138.307 104.394 138.786L107.268 140.221C107.746 140.221 107.746 140.7 107.746 140.7C107.746 140.7 107.746 141.179 107.268 141.179L106.31 141.657C105.831 141.657 105.352 142.136 105.352 142.136C104.873 142.136 104.394 142.136 104.394 141.657L101.521 140.221C101.042 140.221 101.042 139.743 101.042 139.743C101.042 139.743 101.042 139.264 101.521 139.264L102.479 138.786C102.958 138.786 103.437 138.307 103.437 138.307ZM104.394 139.264C103.915 138.786 103.437 138.786 102.958 139.264L102.479 139.743C102 140.221 102 140.221 102.479 140.7L105.352 142.136C105.831 142.614 106.31 142.614 106.789 142.136L107.268 141.657C107.746 141.179 107.746 141.179 107.268 140.7L104.394 139.264Z" fill="#FFD85A"/>
<path d="M107.746 136.393C108.225 136.393 108.704 136.393 108.704 136.871L111.577 138.307C112.056 138.307 112.056 138.786 112.056 138.786C112.056 138.786 112.056 139.264 111.577 139.264L110.62 139.743C110.141 139.743 109.662 140.221 109.662 140.221C109.183 140.221 108.704 140.221 108.704 139.743L105.831 138.307C105.352 138.307 105.352 137.829 105.352 137.829C105.352 137.829 105.352 137.35 105.831 137.35L106.789 136.871C106.789 136.393 107.268 136.393 107.746 136.393ZM108.225 136.871C107.746 136.393 107.268 136.393 106.789 136.871L106.31 137.35C105.831 137.829 105.831 137.829 106.31 138.307L109.183 139.743C109.662 140.221 110.141 140.221 110.62 139.743L111.099 139.264C111.577 138.786 111.577 138.786 111.099 138.307L108.225 136.871Z" fill="#FFD85A"/>
<path d="M111.577 134C112.056 134 112.535 134 112.535 134.479L115.408 135.914C115.887 135.914 115.887 136.393 115.887 136.393C115.887 136.393 115.887 136.871 115.408 136.871L114.451 137.35C113.972 137.35 113.493 137.829 113.493 137.829C113.014 137.829 112.535 137.829 112.535 137.35L109.662 135.914C109.183 135.914 109.183 135.436 109.183 135.436C109.183 135.436 109.183 134.957 109.662 134.957L110.62 134C110.62 134 111.099 134 111.577 134ZM112.056 134.479C111.577 134 111.099 134 110.62 134.479L110.141 134.957C109.662 135.436 109.662 135.436 110.141 135.914L113.014 137.35C113.493 137.829 113.972 137.829 114.451 137.35L114.93 136.871C115.408 136.393 115.408 136.393 114.93 135.914L112.056 134.479Z" fill="#FFD85A"/>
<path d="M115.408 131.607C115.887 131.607 116.366 131.607 116.366 132.086L119.239 133.521C119.718 133.521 119.718 134 119.718 134C119.718 134 119.718 134.479 119.239 134.479L118.282 134.957C117.803 134.957 117.324 135.436 117.324 135.436C116.845 135.436 116.366 135.436 116.366 134.957L113.493 133.521C113.014 133.521 113.014 133.043 113.014 133.043C113.014 133.043 113.014 132.564 113.493 132.564L114.451 132.086C114.451 131.607 114.93 131.607 115.408 131.607ZM115.887 132.086C115.408 131.607 114.93 131.607 114.451 132.086L113.972 132.564C113.493 133.043 113.493 133.043 113.972 133.521L116.845 134.957C117.324 135.436 117.803 135.436 118.282 134.957L118.761 134.479C119.239 134 119.239 134 118.761 133.521L115.887 132.086Z" fill="#FFD85A"/>
<path d="M124.986 125.864C125.465 125.864 125.944 125.864 125.944 126.343L128.817 127.779C129.296 127.779 129.296 128.257 129.296 128.257C129.296 128.257 129.296 128.736 128.817 128.736L127.859 129.214C127.38 129.214 126.901 129.693 126.901 129.693C126.423 129.693 125.944 129.693 125.944 129.214L123.07 127.779C122.592 127.779 122.592 127.3 122.592 127.3C122.592 127.3 122.592 126.821 123.07 126.821L124.028 126.343C124.507 126.343 124.507 125.864 124.986 125.864ZM125.465 126.821C124.986 126.343 124.507 126.343 124.028 126.821L123.549 127.3C123.07 127.779 123.07 127.779 123.549 128.257L126.423 129.693C126.901 130.171 127.38 130.171 127.859 129.693L128.338 129.214C128.817 128.736 128.817 128.736 128.338 128.257L125.465 126.821Z" fill="#FFD85A"/>
<path d="M128.817 123.95C129.296 123.95 129.775 123.95 129.775 124.429L132.648 125.864C133.127 125.864 133.127 126.343 133.127 126.343C133.127 126.343 133.127 126.821 132.648 126.821L131.69 127.3C131.211 127.3 130.732 127.779 130.732 127.779C130.253 127.779 129.775 127.779 129.775 127.3L126.901 125.864C126.423 125.864 126.423 125.386 126.423 125.386C126.423 125.386 126.423 124.907 126.901 124.907L127.859 124.429C128.338 123.95 128.817 123.95 128.817 123.95ZM129.775 124.429C129.296 123.95 128.817 123.95 128.338 124.429L127.859 124.907C127.38 125.386 127.38 125.386 127.859 125.864L130.732 127.3C131.211 127.779 131.69 127.779 132.169 127.3L132.648 126.821C133.127 126.343 133.127 126.343 132.648 125.864L129.775 124.429Z" fill="#FFD85A"/>
<path d="M133.127 121.557C133.606 121.557 134.084 121.557 134.084 122.036L136.958 123.471C137.437 123.471 137.437 123.95 137.437 123.95C137.437 123.95 137.437 124.429 136.958 124.429L136 124.907C135.521 124.907 135.042 125.386 135.042 125.386C134.563 125.386 134.084 125.386 134.084 124.907L131.211 123.471C130.732 123.471 130.732 122.993 130.732 122.993C130.732 122.993 130.732 122.514 131.211 122.514L132.169 122.036C132.169 121.557 132.648 121.557 133.127 121.557ZM133.606 122.036C133.127 121.557 132.648 121.557 132.169 122.036L131.69 122.514C131.211 122.993 131.211 122.993 131.69 123.471L134.563 124.907C135.042 125.386 135.521 125.386 136 124.907L136.479 124.429C136.958 123.95 136.958 123.95 136.479 123.471L133.606 122.036Z" fill="#FFD85A"/>
<path d="M137.915 119.643L140.789 121.079C141.268 121.079 141.268 121.557 141.268 121.557C141.268 121.557 141.268 122.036 140.789 122.036L139.831 122.514C139.352 122.514 138.873 122.993 138.873 122.993C138.394 122.993 137.915 122.993 137.915 122.514L135.042 121.079C134.563 121.079 134.563 120.6 134.563 120.6C134.563 120.6 134.563 120.121 135.042 120.121L136 119.643C136.479 119.643 136.958 119.164 136.958 119.164C137.437 119.164 137.915 119.164 137.915 119.643ZM137.437 120.121C136.958 119.643 136.479 119.643 136 120.121L135.521 120.6C135.042 121.079 135.042 121.079 135.521 121.557L138.394 122.993C138.873 123.471 139.352 123.471 139.831 122.993L140.31 122.514C140.789 122.036 140.789 122.036 140.31 121.557L137.437 120.121Z" fill="#FFD85A"/>
<path d="M122.113 110.55L118.282 108.157L116.366 109.114C115.887 109.114 115.887 109.593 115.887 109.593C115.887 109.593 115.887 110.071 116.366 110.071L118.282 111.507C118.761 111.507 118.761 111.986 119.239 111.986C119.718 111.986 119.718 111.986 120.197 111.507L122.113 110.55C122.592 110.55 122.592 110.55 122.113 110.55ZM121.155 110.55L120.197 111.029C119.718 111.029 119.718 111.029 119.239 111.029L117.324 110.071C116.845 110.071 116.845 109.593 117.324 109.593L118.282 109.114L121.155 110.55Z" fill="#FFD85A"/>
<path d="M116.845 113.9L118.761 112.943L114.93 110.55L112.535 111.507L113.014 111.986L114.451 111.029L115.887 111.507L114.451 112.464L114.93 112.943L116.366 112.464L117.803 112.943L116.366 113.9C116.366 113.421 116.366 113.9 116.845 113.9Z" fill="#FFD85A"/>
<path d="M115.887 114.379L112.056 111.986L110.141 112.943C109.662 112.943 109.662 113.421 109.662 113.421C109.662 113.421 109.662 113.9 110.141 113.9H110.62C111.099 113.9 111.577 114.379 112.056 113.9C112.056 113.9 112.056 113.9 112.056 114.379C112.056 114.379 112.056 114.857 112.535 114.857H113.014C113.493 114.857 113.493 115.336 113.972 115.336C114.451 115.336 114.451 115.336 114.93 114.857L115.887 114.379ZM113.014 113.421L112.056 113.9C111.577 113.9 111.577 113.9 111.099 113.9H110.62C110.141 113.9 110.141 113.421 110.62 113.421L111.577 112.943C111.577 112.464 113.014 113.421 113.014 113.421ZM114.451 114.379L113.493 114.857C113.014 114.857 113.014 114.857 112.535 114.857H112.056C111.577 114.857 111.577 114.379 112.056 114.379L113.014 113.9C113.493 113.421 114.451 114.379 114.451 114.379C114.93 114.379 114.93 114.379 114.451 114.379Z" fill="#FFD85A"/>
<path d="M107.746 114.379L111.577 116.771H112.056L108.225 114.379C108.225 113.9 107.746 114.379 107.746 114.379Z" fill="#FFD85A"/>
<path d="M109.662 117.729C110.141 117.25 106.789 115.336 106.789 115.336L107.746 114.857L107.268 114.379L104.873 115.814L105.352 116.293L106.31 115.814L109.662 117.729Z" fill="#FFD85A"/>
<path d="M104.873 120.6L105.831 120.121C106.31 120.121 106.31 119.643 106.31 119.643C106.31 119.643 106.31 119.164 105.831 119.164L103.915 117.729C103.437 117.729 103.437 117.25 102.958 117.25C102.479 117.25 102.479 117.25 102 117.729L101.042 118.207C100.563 118.207 100.563 118.686 100.563 118.686C100.563 118.686 100.563 119.164 101.042 119.164H101.521H102L101.521 118.686C101.042 118.686 101.042 118.207 101.521 118.207L102 117.729C102.479 117.729 102.479 117.729 102.958 117.729L104.873 118.686C105.352 118.686 105.352 119.164 104.873 119.164V120.6C103.916 120.6 103.915 120.6 103.437 120.121H102.958H102.479L102.958 120.6C103.437 120.6 103.437 121.079 103.915 121.079C104.394 121.079 104.394 120.6 104.873 120.6Z" fill="#FFD85A"/>
<path d="M102.958 122.036C103.437 121.557 98.6479 120.121 98.6479 120.121C98.6479 120.121 98.6479 120.121 98.169 120.121L97.6901 120.6L100.563 123.471H101.042L100.563 122.514L102 121.557L102.958 122.036ZM98.169 120.6L100.563 121.557L99.6056 122.036L98.169 120.6Z" fill="#FFD85A"/>
<path d="M99.1267 123.95C99.6056 123.471 95.7746 121.557 95.7746 121.557L93.8591 122.514C93.3803 122.514 93.3803 122.993 93.3803 122.993C93.3803 122.993 93.3803 123.471 93.8591 123.471L94.338 123.95C94.8169 124.429 95.2958 124.429 95.7746 123.95L96.7324 125.386H97.2112L96.7324 123.95L97.2112 123.471C97.6901 122.993 99.1267 123.95 99.1267 123.95ZM96.7324 122.993L95.7746 123.471C95.2958 123.471 95.2957 123.471 94.8169 123.471L94.338 122.993C93.8591 122.993 93.8591 122.514 94.338 122.514L95.2958 122.036C95.7746 122.036 96.7324 122.993 96.7324 122.993Z" fill="#FFD85A"/>
<path d="M96.2535 125.386L92.4225 122.993L90.507 123.95C90.0282 123.95 90.0281 124.429 90.0281 124.429C90.0281 124.429 90.0282 124.907 90.507 124.907L92.4225 126.343C92.9014 126.343 92.9014 126.821 93.3803 126.821C93.8592 126.821 93.8591 126.821 94.338 126.343L96.2535 125.386C96.2535 125.864 96.2535 125.864 96.2535 125.386ZM94.8169 125.864L93.8591 126.343C93.3803 126.343 93.3803 126.343 92.9014 126.343L90.9859 125.386C90.507 125.386 90.507 124.907 90.9859 124.907L91.9436 124.429C91.9436 123.95 94.8169 125.864 94.8169 125.864Z" fill="#FFD85A"/>
<path d="M222.676 179.943L233.211 186.164C234.648 187.121 236.085 186.643 236.085 185.207V178.507C236.085 177.071 234.648 175.157 233.211 174.2L222.676 167.979C221.239 167.021 219.803 167.5 219.803 168.936V175.636C219.803 177.071 221.239 178.986 222.676 179.943Z" fill="#B3D7FF"/>
<path d="M203.042 168.457L213.577 174.679C215.014 175.636 216.451 175.157 216.451 173.721V167.021C216.451 165.586 215.014 163.671 213.577 162.714L203.042 156.493C201.606 155.536 200.169 156.014 200.169 157.45V164.15C200.169 165.586 201.606 167.5 203.042 168.457Z" fill="#B3D7FF"/>
<path d="M183.408 156.971L193.944 163.193C195.38 164.15 196.817 163.671 196.817 162.236V155.536C196.817 154.1 195.38 152.186 193.944 151.229L183.408 145.007C181.972 144.05 180.535 144.529 180.535 145.964V152.664C180.535 154.579 181.972 156.493 183.408 156.971Z" fill="#B3D7FF"/>
<path d="M222.676 194.779L233.211 201C234.648 201.957 236.085 201.479 236.085 200.043V193.343C236.085 191.907 234.648 189.993 233.211 189.036L222.676 182.814C221.239 181.857 219.803 182.336 219.803 183.771V190.471C219.803 191.907 221.239 193.821 222.676 194.779Z" fill="#B3D7FF"/>
<path d="M203.042 183.293L213.577 189.514C215.014 190.471 216.451 189.993 216.451 188.557V181.857C216.451 180.421 215.014 178.507 213.577 177.55L203.042 171.329C201.606 170.371 200.169 170.85 200.169 172.286V178.986C200.169 180.9 201.606 182.814 203.042 183.293Z" fill="#B3D7FF"/>
<path d="M183.408 172.286L193.944 178.507C195.38 179.464 196.817 178.986 196.817 177.55V170.85C196.817 169.414 195.38 167.5 193.944 166.543L183.408 160.321C181.972 159.364 180.535 159.843 180.535 161.279V167.979C180.535 169.414 181.972 171.329 183.408 172.286Z" fill="#B3D7FF"/>
<path d="M222.676 210.093L233.211 216.314C234.648 217.271 236.085 216.793 236.085 215.357V208.657C236.085 207.221 234.648 205.307 233.211 204.35L222.676 198.129C221.239 197.171 219.803 197.65 219.803 199.086V205.786C219.803 207.221 221.239 209.136 222.676 210.093Z" fill="#B3D7FF"/>
<path d="M203.042 198.607L213.577 204.829C215.014 205.786 216.451 205.307 216.451 203.871V197.171C216.451 195.736 215.014 193.821 213.577 192.864L203.042 186.643C201.606 185.686 200.169 186.164 200.169 187.6V194.3C200.169 195.736 201.606 197.65 203.042 198.607Z" fill="#B3D7FF"/>
<path d="M183.408 187.121L193.944 193.343C195.38 194.3 196.817 193.821 196.817 192.386V185.686C196.817 184.25 195.38 182.336 193.944 181.379L183.408 175.157C181.972 174.2 180.535 174.679 180.535 176.114V182.814C180.535 184.25 181.972 186.164 183.408 187.121Z" fill="#B3D7FF"/>
<path d="M222.676 224.929L233.211 231.15C234.648 232.107 236.085 231.629 236.085 230.193V223.493C236.085 222.057 234.648 220.143 233.211 219.186L222.676 212.964C221.239 212.007 219.803 212.486 219.803 213.921V220.621C219.803 222.057 221.239 223.971 222.676 224.929Z" fill="#95ACF4"/>
<path d="M203.042 213.443L213.577 219.664C215.014 220.621 215.972 220.143 215.972 218.707V212.007C215.972 210.571 214.535 208.657 213.099 207.7L202.563 201.479C201.127 200.521 199.69 201 199.69 202.436V209.136C200.169 211.05 201.606 212.964 203.042 213.443Z" fill="#B3D7FF"/>
<path d="M183.408 202.436L193.944 208.657C195.38 209.614 196.817 209.136 196.817 207.7V201C196.817 199.564 195.38 197.65 193.944 196.693L183.408 190.471C181.972 189.514 180.535 189.993 180.535 191.429V198.129C180.535 199.564 181.972 201.479 183.408 202.436Z" fill="#95ACF4"/>
<defs>
<linearGradient id="paint0_linear_11_191" x1="302.071" y1="350.431" x2="202.309" y2="350.431" gradientUnits="userSpaceOnUse">
<stop stop-color="#F8F6FA"/>
<stop offset="1" stop-color="#FBF8FC"/>
</linearGradient>
<linearGradient id="paint1_linear_11_191" x1="262.198" y1="312.257" x2="251.06" y2="331.561" gradientUnits="userSpaceOnUse">
<stop stop-color="#CFCAD5"/>
<stop offset="1" stop-color="#EAE7ED"/>
</linearGradient>
<linearGradient id="paint2_linear_11_191" x1="218.69" y1="262.451" x2="292.112" y2="262.451" gradientUnits="userSpaceOnUse">
<stop stop-color="#E0DBE1"/>
<stop offset="1" stop-color="#E0DBE1"/>
</linearGradient>
<linearGradient id="paint3_linear_11_191" x1="407.963" y1="86.0912" x2="109.584" y2="86.0912" gradientUnits="userSpaceOnUse">
<stop stop-color="#F8F6FA"/>
<stop offset="1" stop-color="#FBF8FC"/>
</linearGradient>
<linearGradient id="paint4_linear_11_191" x1="322.163" y1="128.373" x2="191.271" y2="239.951" gradientUnits="userSpaceOnUse">
<stop stop-color="#5917FF"/>
<stop offset="0.1588" stop-color="#6D22F8"/>
<stop offset="0.4847" stop-color="#A13DE7"/>
<stop offset="0.9459" stop-color="#F569CA"/>
<stop offset="1" stop-color="#FF6EC7"/>
</linearGradient>
<linearGradient id="paint5_linear_11_191" x1="238.752" y1="414.644" x2="249.244" y2="414.644" gradientUnits="userSpaceOnUse">
<stop stop-color="#E0DBE1"/>
<stop offset="1" stop-color="#E0DBE1"/>
</linearGradient>
<linearGradient id="paint6_linear_11_191" x1="306.417" y1="395.382" x2="61.2192" y2="395.382" gradientUnits="userSpaceOnUse">
<stop stop-color="#F8F6FA"/>
<stop offset="1" stop-color="#FAF8FC"/>
</linearGradient>
<linearGradient id="paint7_linear_11_191" x1="129.999" y1="186.818" x2="119.02" y2="205.844" gradientUnits="userSpaceOnUse">
<stop offset="0.5025" stop-color="#F8F5F4"/>
<stop offset="1" stop-color="#E8E5E5"/>
</linearGradient>
<linearGradient id="paint8_linear_11_191" x1="169.512" y1="125.898" x2="50.0155" y2="157.985" gradientUnits="userSpaceOnUse">
<stop stop-color="#8C32EE"/>
<stop offset="0.1911" stop-color="#9C3DE6"/>
<stop offset="0.5658" stop-color="#C75AD2"/>
<stop offset="1" stop-color="#FF80B7"/>
</linearGradient>
</defs>
</svg>
