<svg width="17" height="18" viewBox="0 0 17 18" fill="none" xmlns="http://www.w3.org/2000/svg">
<path fill-rule="evenodd" clip-rule="evenodd" d="M14.4657 14.8361L14.4731 14.8407C14.3794 14.9279 14.2805 15.0094 14.1834 15.0926C14.1417 15.1282 14.1023 15.1661 14.06 15.2005L14.0228 15.2327H14.0194C12.5838 16.3922 10.7943 17.0196 8.95214 17.0091C7.10998 16.9987 5.32763 16.3511 3.90512 15.1753C3.75274 15.0479 3.60398 14.9151 3.45883 14.7769H3.46455C2.30809 13.6651 1.51032 12.2303 1.17437 10.6581C0.838423 9.0859 0.97975 7.44863 1.5801 5.95799C2.18045 4.46736 3.21221 3.19192 4.54194 2.29661C5.87168 1.4013 7.43822 0.927303 9.03901 0.935906C10.6398 0.944509 12.2012 1.43532 13.5213 2.34487C14.8414 3.25442 15.8596 4.54087 16.444 6.03787C17.0284 7.53487 17.1523 9.17358 16.7997 10.7421C16.447 12.3106 15.6339 13.7367 14.4657 14.8361ZM8.99999 1.56769C7.50525 1.55794 6.04279 2.00427 4.8061 2.84764C3.56942 3.69101 2.6168 4.89167 2.07428 6.29074C1.53175 7.68982 1.4249 9.22139 1.76784 10.6828C2.11079 12.1442 2.88738 13.4666 3.99486 14.475C4.39486 14.2724 4.79485 14.0807 5.20343 13.901C5.73501 13.7075 6.22128 13.4063 6.632 13.0159C6.86239 12.7085 6.97386 12.3275 6.94572 11.9437C6.92761 11.8761 6.93182 11.8044 6.95772 11.7394C6.96417 11.7402 6.97038 11.7424 6.97599 11.7457C6.59085 11.5379 6.40456 11.077 6.26913 10.2791C6.31783 10.2891 6.36742 10.2939 6.41712 10.2935C6.48791 10.293 6.55851 10.2859 6.62799 10.2722C6.60759 10.2757 6.58697 10.2774 6.56629 10.2774C6.50795 10.2772 6.45036 10.2641 6.39769 10.2388C6.34503 10.2136 6.2986 10.177 6.26171 10.1316C6.25843 10.1253 6.25348 10.1199 6.24741 10.1161C6.24398 10.1333 6.24519 10.1512 6.25086 10.1678C6.25714 10.2057 6.26285 10.243 6.26913 10.2791C5.83828 10.1902 5.7137 9.68333 5.64741 8.7902C5.62649 8.50141 5.6984 8.21349 5.85256 7.96882C5.87656 8.15135 5.87769 8.16398 5.88569 8.22196L6.45255 8.14791C6.45255 8.14791 6.41312 8.19154 6.33826 8.27936C6.24404 8.43188 6.2038 8.61185 6.224 8.7902C6.27048 9.40437 6.36572 9.71166 6.50972 9.71204C6.51636 9.71289 6.52306 9.71289 6.5297 9.71204C6.54367 9.70962 6.5578 9.70827 6.57197 9.70801C6.70302 9.70801 6.78627 9.83602 6.82169 10.092C6.92836 10.7628 7.07178 11.1472 7.25198 11.2452C7.35561 11.3267 7.43539 11.4349 7.48286 11.5583C7.53034 11.6817 7.54378 11.8156 7.52172 11.946C7.5518 12.4672 7.39102 12.9815 7.06971 13.3919C6.60438 13.8499 6.04726 14.2031 5.43543 14.428C5.11048 14.5711 4.78875 14.722 4.47027 14.8808C5.75696 15.8813 7.33584 16.4284 8.96298 16.4374C10.5901 16.4464 12.175 15.9169 13.4726 14.9308C13.1217 14.754 12.7674 14.5914 12.4097 14.4429C11.7983 14.2101 11.2418 13.8522 10.7754 13.3919C10.4541 12.9815 10.2933 12.4672 10.3234 11.946C10.3013 11.8156 10.3148 11.6817 10.3623 11.5583C10.4097 11.4349 10.4895 11.3267 10.5931 11.2452C10.773 11.148 10.9164 10.7636 11.0234 10.092C11.0589 9.83602 11.1421 9.70801 11.2731 9.70801C11.2873 9.70827 11.3014 9.70962 11.3154 9.71204C11.3221 9.71289 11.3288 9.71289 11.3354 9.71204C11.4802 9.71204 11.5754 9.40475 11.6211 8.7902C11.6423 8.61399 11.6019 8.43587 11.5069 8.28624C11.4286 8.20359 11.3926 8.16226 11.3926 8.16226L11.9588 8.23516C11.9668 8.17776 11.9686 8.16342 11.9926 7.97572C12.1516 8.23166 12.2228 8.53283 12.1954 8.83326C12.1308 9.69424 12.0063 10.1919 11.5754 10.2797C11.5811 10.247 11.5863 10.2137 11.592 10.1798C11.5983 10.1594 11.6 10.1379 11.5971 10.1167C11.5912 10.1204 11.5863 10.1255 11.5829 10.1316C11.546 10.177 11.4995 10.2136 11.4468 10.2388C11.3942 10.2641 11.3366 10.2772 11.2783 10.2774C11.2576 10.2774 11.237 10.2757 11.2166 10.2722C11.2864 10.2859 11.3574 10.293 11.4286 10.2935C11.4778 10.2938 11.5271 10.2892 11.5754 10.2797C11.4406 11.073 11.2554 11.5368 10.8691 11.7457C10.8747 11.7423 10.8809 11.7401 10.8874 11.7394C10.9124 11.8046 10.9164 11.8761 10.8988 11.9437C10.8708 12.3274 10.982 12.7083 11.212 13.0159C11.6214 13.4065 12.1044 13.7112 12.6326 13.9119C13.0455 14.0834 13.4533 14.2724 13.856 14.479L13.956 14.5313C15.0798 13.5295 15.8726 12.2072 16.2285 10.7409C16.5845 9.27462 16.4866 7.73416 15.948 6.32523C15.4093 4.91631 14.4556 3.70599 13.2141 2.85589C11.9726 2.00579 10.5024 1.55639 8.99999 1.56769ZM5.72114 6.86447C5.70697 6.46444 5.77384 6.06566 5.91771 5.69237C6.10287 5.17649 6.44215 4.73065 6.88915 4.41581C7.28177 4.13045 7.65319 3.81681 8.00055 3.47735C8.5289 3.02491 9.21401 2.80082 9.90627 2.854H9.94397C10.028 2.854 10.1154 2.85399 10.2011 2.8603L10.5326 2.87581L10.6828 3.17198C10.7557 3.3101 10.7818 3.46826 10.7574 3.62262C10.733 3.77698 10.6593 3.91917 10.5474 4.0278C10.5175 4.05907 10.4858 4.08858 10.4526 4.11619C10.3708 4.0806 10.2868 4.04789 10.1994 4.01746L10.1908 3.99394C10.1908 4.00083 10.1908 4.00772 10.1908 4.01461C10.1228 3.99108 10.0531 3.96867 9.98171 3.94801L9.824 4.49732C9.69744 4.37173 9.62412 4.20185 9.61941 4.02321C9.60969 3.83322 10.32 3.71785 10.1737 3.432C10.088 3.42798 10.0051 3.42569 9.92455 3.42569C9.37665 3.37436 8.83038 3.53902 8.40114 3.88488C8.03424 4.24408 7.64174 4.57597 7.22683 4.87789C6.87502 5.124 6.60744 5.47318 6.46058 5.87777C6.34334 6.17754 6.28642 6.4977 6.29313 6.8197C6.32227 7.11129 6.35598 7.40632 6.39483 7.70307C6.43369 7.99983 6.452 8.14849 6.452 8.14849L6.02458 7.7685L5.91028 7.89994C5.88996 7.922 5.87086 7.94519 5.85312 7.9694C5.84626 7.91946 5.83826 7.85461 5.82797 7.77712C5.78683 7.47405 5.75143 7.17385 5.72114 6.86447ZM11.5429 6.81912C11.5344 6.38678 11.427 5.96218 11.2291 5.57816C11.091 5.30298 10.8926 5.0628 10.6488 4.87561C10.4051 4.68843 10.1223 4.55909 9.82169 4.49732L10.1737 4.1449C10.1546 4.22078 10.1151 4.28989 10.0594 4.34464L10.0531 4.35612C10.0754 4.34234 10.0994 4.32973 10.1749 4.28898C10.271 4.24023 10.3625 4.18257 10.448 4.11677C11.0234 4.34317 11.4896 4.78377 11.7497 5.34683C11.9899 5.82043 12.1133 6.34503 12.1097 6.87652C12.0804 7.17385 12.0459 7.47615 12.0063 7.78342C11.996 7.86321 11.9874 7.92635 11.9811 7.97628C11.9601 7.94793 11.9376 7.92073 11.9137 7.89478L11.7994 7.77079L11.384 8.16284C11.384 8.16284 11.4028 8.01188 11.4411 7.70996C11.4794 7.40804 11.5143 7.11071 11.5429 6.81912ZM10.1714 4.1449C10.1821 4.10233 10.1871 4.05851 10.1863 4.01461H10.1943L10.2229 4.09037L10.1714 4.1449Z" fill="#F6F6F6"/>
</svg>
