<svg width="44" height="38" viewBox="0 0 44 38" fill="none" xmlns="http://www.w3.org/2000/svg">
<path d="M43.3205 1.04034C42.7831 0.369398 41.9781 0 41.0536 0C40.5511 0 40.0187 0.107941 39.4715 0.321424L2.22638 14.8345C0.249824 15.6045 -0.0163799 16.76 0.000740442 17.3802C0.0178607 18.0004 0.347847 19.1388 2.36402 19.7936C2.3761 19.7974 2.38819 19.8012 2.40027 19.8046L10.1259 22.0614L14.3039 34.257C14.8736 35.9197 16.1523 36.9525 17.6414 36.9525C18.5803 36.9525 19.5038 36.5508 20.3122 35.7915L25.0907 31.3001L32.0218 36.997C32.0225 36.9977 32.0235 36.998 32.0241 36.9987L32.0899 37.0529C32.096 37.0577 32.1023 37.0628 32.1084 37.0676C32.8788 37.6775 33.7197 37.9997 34.5412 38H34.5415C36.1464 38 37.4244 36.7873 37.7967 34.9108L43.8993 4.15144C44.1443 2.9168 43.9389 1.81204 43.3205 1.04034ZM12.7104 21.6327L27.6155 13.86L18.3346 23.9266C18.1825 24.0914 18.0748 24.2932 18.0217 24.5129L16.2321 31.9125L12.7104 21.6327ZM18.5655 33.8554C18.5038 33.9133 18.4417 33.9651 18.3796 34.0127L20.0399 27.1483L23.0601 29.631L18.5655 33.8554ZM41.3725 3.62887L35.2699 34.3886C35.2112 34.683 35.0235 35.368 34.5412 35.368C34.3028 35.368 34.0034 35.2353 33.6969 34.9944L25.843 28.5392C25.842 28.5382 25.8407 28.5372 25.8393 28.5365L21.1662 24.6952L34.5875 10.1375C35.0172 9.67151 35.0561 8.95773 34.6798 8.44578C34.3032 7.93383 33.6207 7.77277 33.0624 8.06404L10.988 19.5757L3.15726 17.2887L40.3909 2.78008C40.7055 2.6574 40.925 2.6317 41.0536 2.6317C41.1325 2.6317 41.2728 2.6413 41.3248 2.70675C41.3933 2.79207 41.4806 3.083 41.3725 3.62887Z" fill="black"/>
</svg>
