<svg width="38" height="46" viewBox="0 0 38 46" fill="none" xmlns="http://www.w3.org/2000/svg">
<path d="M22.4286 39.8438C21.9554 39.8438 21.5714 40.2287 21.5714 40.7031C21.5714 41.1775 21.9554 41.5625 22.4286 41.5625C22.9017 41.5625 23.2857 41.1775 23.2857 40.7031C23.2857 40.2287 22.9017 39.8438 22.4286 39.8438Z" fill="black" stroke="black" stroke-width="0.5"/>
<path d="M34.4286 4.95312H31.8571V3.57812C31.8571 2.15655 30.7036 1 29.2857 1H8.71429C7.2964 1 6.14286 2.15655 6.14286 3.57812V4.95312H3.57143C2.15354 4.95312 1 6.10967 1 7.53125C1 13.1221 3.60931 17.2308 7.8424 18.3747C9.29354 21.5771 11.5879 24.2995 14.5002 26.2667C15.171 26.7199 15.5714 27.4956 15.5714 28.3419V33.0769C14.9839 33.228 14.4448 33.5343 14.0045 33.9759C13.3567 34.6254 13 35.4884 13 36.4062H12.1429C10.725 36.4062 9.57143 37.5628 9.57143 38.9844V44.1406C9.57143 44.6153 9.95526 45 10.4286 45H27.5714C28.0447 45 28.4286 44.6153 28.4286 44.1406V38.9844C28.4286 37.5628 27.275 36.4062 25.8571 36.4062H25C25 34.8075 23.9057 33.4601 22.4286 33.0775V28.3462C22.4286 27.4972 22.8293 26.72 23.5007 26.2668C26.4132 24.2995 28.7076 21.577 30.1586 18.3744C34.3911 17.2301 37 13.1217 37 7.53125C37 6.10967 35.8465 4.95312 34.4286 4.95312ZM2.71429 7.53125C2.71429 7.05739 3.0988 6.67188 3.57143 6.67188H6.14286V10.5133C6.14286 12.4722 6.43883 14.3905 7.02314 16.2379C4.29546 14.8833 2.71429 11.7547 2.71429 7.53125ZM25.8571 38.125C26.3298 38.125 26.7143 38.5105 26.7143 38.9844V43.2812H11.2857V38.9844C11.2857 38.5105 11.6702 38.125 12.1429 38.125H25.8571ZM30.1429 10.5133C30.1429 12.8608 29.6767 15.145 28.7572 17.3023C27.4492 20.3718 25.3003 22.9787 22.5431 24.8412C21.3979 25.614 20.7143 26.9243 20.7143 28.3462V33.8281C20.7143 34.3028 21.0981 34.6875 21.5714 34.6875C22.5167 34.6875 23.2857 35.4585 23.2857 36.4062H14.7143C14.7143 35.9475 14.8927 35.516 15.2167 35.1912C15.5247 34.8823 15.929 34.7055 16.3614 34.6888C16.3836 34.6905 16.4059 34.6914 16.4285 34.6914C16.9018 34.6914 17.2856 34.3028 17.2856 33.8281V28.3419C17.2856 26.923 16.6024 25.6145 15.458 24.8414C12.7005 22.9788 10.5517 20.3719 9.24349 17.3022C8.3236 15.1456 7.85714 12.8614 7.85714 10.5133V3.57812C7.85714 3.10427 8.24166 2.71875 8.71429 2.71875H29.2857C29.7583 2.71875 30.1429 3.10427 30.1429 3.57812V10.5133ZM30.9772 16.2378C31.5613 14.3899 31.8571 12.4717 31.8571 10.5133V6.67188H34.4286C34.9012 6.67188 35.2857 7.05739 35.2857 7.53125C35.2857 11.7545 33.7047 14.8829 30.9772 16.2378Z" fill="black" stroke="black" stroke-width="0.5"/>
<path d="M25.7833 11.1544C25.6826 10.8432 25.4143 10.6164 25.0914 10.5695L21.3923 10.0312L19.7377 6.66971C19.5933 6.37632 19.2954 6.19061 18.969 6.19061C18.6427 6.19061 18.3448 6.37632 18.2004 6.66971L16.5458 10.0312L12.8468 10.5695C12.5238 10.6165 12.2556 10.8433 12.1548 11.1544C12.054 11.4655 12.138 11.8071 12.3717 12.0354L15.0489 14.6513L14.417 18.3455C14.3619 18.668 14.4941 18.9938 14.7581 19.1861C15.0221 19.3783 15.372 19.4037 15.6607 19.2515L18.9691 17.5075L22.2783 19.2515C22.5689 19.4046 22.9187 19.3771 23.181 19.186C23.4449 18.9937 23.577 18.6678 23.5218 18.3454L22.8893 14.6512L25.5664 12.0354C25.8001 11.8071 25.8841 11.4655 25.7833 11.1544ZM21.37 13.7358C21.168 13.9332 21.0756 14.2178 21.1235 14.4966L21.5384 16.9198L19.3679 15.7759C19.118 15.6443 18.8197 15.6443 18.5702 15.776L16.4004 16.9198L16.8149 14.4965C16.8625 14.2176 16.7703 13.9332 16.5683 13.7358L14.8125 12.0201L17.2383 11.6671C17.5176 11.6264 17.7589 11.4506 17.8838 11.1969L18.9691 8.99183L20.0544 11.1969C20.1793 11.4506 20.4207 11.6264 20.7 11.6671L23.1258 12.0201L21.37 13.7358Z" fill="black" stroke="black" stroke-width="0.5"/>
<path d="M19 39.8438H15.5714C15.0981 39.8438 14.7143 40.2285 14.7143 40.7031C14.7143 41.1778 15.0981 41.5625 15.5714 41.5625H19C19.4733 41.5625 19.8572 41.1778 19.8572 40.7031C19.8572 40.2285 19.4733 39.8438 19 39.8438Z" fill="black" stroke="black" stroke-width="0.5"/>
</svg>
