<svg width="44" height="44" viewBox="0 0 44 44" fill="none" xmlns="http://www.w3.org/2000/svg">
<path d="M31.9688 10.3125C31.0195 10.3125 30.25 9.54302 30.25 8.59375C30.25 7.64448 31.0195 6.875 31.9688 6.875C34.8119 6.875 37.125 9.18809 37.125 12.0312C37.125 14.8744 34.8119 17.1875 31.9688 17.1875C31.0195 17.1875 30.25 16.418 30.25 15.4688C30.25 14.5195 31.0195 13.75 31.9688 13.75C32.9165 13.75 33.6875 12.979 33.6875 12.0312C33.6875 11.0835 32.9165 10.3125 31.9688 10.3125Z" fill="black"/>
<path d="M12.0312 26.8125C12.9805 26.8125 13.75 27.582 13.75 28.5312V35.4062C13.75 36.3555 12.9805 37.125 12.0312 37.125C11.082 37.125 10.3125 36.3555 10.3125 35.4062V28.5312C10.3125 27.582 11.082 26.8125 12.0312 26.8125Z" fill="black"/>
<path d="M31.9688 24.0625C25.3347 24.0625 19.9375 18.6653 19.9375 12.0312C19.9375 5.39722 25.3347 0 31.9688 0C38.6028 0 44 5.39722 44 12.0312C44 18.6653 38.6028 24.0625 31.9688 24.0625ZM31.9688 3.4375C27.2302 3.4375 23.375 7.29266 23.375 12.0312C23.375 16.7698 27.2302 20.625 31.9688 20.625C36.7073 20.625 40.5625 16.7698 40.5625 12.0312C40.5625 7.29266 36.7073 3.4375 31.9688 3.4375Z" fill="black"/>
<path d="M12.0312 19.9375C18.6653 19.9375 24.0625 25.3347 24.0625 31.9688C24.0625 38.6028 18.6653 44 12.0312 44C5.39722 44 0 38.6028 0 31.9688C0 25.3347 5.39722 19.9375 12.0312 19.9375ZM12.0312 40.5625C16.7698 40.5625 20.625 36.7073 20.625 31.9688C20.625 27.2302 16.7698 23.375 12.0312 23.375C7.29266 23.375 3.4375 27.2302 3.4375 31.9688C3.4375 36.7073 7.29266 40.5625 12.0312 40.5625Z" fill="black"/>
<path d="M8.25 16.8438C7.30073 16.8438 6.53125 16.0743 6.53125 15.125V11.6875C6.53125 8.84434 8.84434 6.53125 11.6875 6.53125H15.125C16.0743 6.53125 16.8438 7.30073 16.8438 8.25C16.8438 9.19927 16.0743 9.96875 15.125 9.96875H11.6875C10.7398 9.96875 9.96875 10.7398 9.96875 11.6875V15.125C9.96875 16.0743 9.19927 16.8438 8.25 16.8438Z" fill="black"/>
<path d="M35.75 27.1562C36.6993 27.1562 37.4688 27.9257 37.4688 28.875V32.3125C37.4688 35.1557 35.1557 37.4688 32.3125 37.4688H28.875C27.9257 37.4688 27.1562 36.6993 27.1562 35.75C27.1562 34.8007 27.9257 34.0312 28.875 34.0312H32.3125C33.2602 34.0312 34.0312 33.2602 34.0312 32.3125V28.875C34.0312 27.9257 34.8007 27.1562 35.75 27.1562Z" fill="black"/>
</svg>
