<svg width="44" height="44" viewBox="0 0 44 44" fill="none" xmlns="http://www.w3.org/2000/svg">
<path d="M39.2589 0H4.7409C2.12678 0 0 2.1267 0 4.74083V33.7361C0 36.3503 2.12678 38.4771 4.7409 38.4771H15.9431L21.0883 43.6224C21.3301 43.8641 21.6579 44 21.9999 44C22.3417 44 22.6696 43.8642 22.9114 43.6224L28.0567 38.4771H39.259C41.8732 38.4771 44 36.3503 44 33.7361V4.74083C43.9999 2.1267 41.8731 0 39.2589 0V0ZM41.4218 33.7361C41.4218 34.9287 40.4516 35.8989 39.2589 35.8989H27.5228C27.1809 35.8989 26.853 36.0347 26.6114 36.2765L21.9999 40.8879L17.3886 36.2765C17.1468 36.0348 16.819 35.8989 16.477 35.8989H4.7409C3.54835 35.8989 2.57812 34.9287 2.57812 33.7361V4.74083C2.57812 3.54827 3.54835 2.57812 4.7409 2.57812H39.259C40.4516 2.57812 41.4218 3.54827 41.4218 4.74083V33.7361Z" fill="black"/>
<path d="M33.0737 14.8281L26.2213 13.8321L23.1559 7.62206C22.9388 7.18215 22.4907 6.90363 22 6.90363C21.5094 6.90363 21.0613 7.18215 20.8441 7.62215L17.779 13.8321L10.9261 14.8281C10.4406 14.8986 10.0372 15.2387 9.88549 15.7054C9.73389 16.1721 9.86039 16.6843 10.2117 17.0268L15.1708 21.8605L14.0003 28.6858C13.9174 29.1693 14.1162 29.6581 14.5131 29.9466C14.9102 30.2349 15.4364 30.273 15.8707 30.0447L22 26.8223L28.1299 30.0447C28.3184 30.1438 28.5244 30.1928 28.7296 30.1928H28.7349C29.4453 30.191 30.0205 29.6145 30.0205 28.9037C30.0205 28.8047 30.0093 28.7083 29.9883 28.6156L28.8291 21.8605L33.7881 17.0269C34.1395 16.6844 34.266 16.1722 34.1143 15.7055C33.9627 15.2387 33.5593 14.8986 33.0737 14.8281ZM26.5442 20.4873C26.2403 20.7835 26.1017 21.2102 26.1734 21.6284L27.0175 26.5471L22.5998 24.2249C22.2243 24.0275 21.7757 24.0275 21.4001 24.2249L16.9829 26.5472L17.8264 21.6283C17.8981 21.2102 17.7595 20.7835 17.4557 20.4874L13.8817 17.0038L18.8205 16.2859C19.2403 16.2249 19.6032 15.9613 19.791 15.5808L22.0001 11.1051L24.2094 15.5809C24.3972 15.9613 24.76 16.2249 25.1799 16.2859L30.1182 17.0038L26.5442 20.4873Z" fill="black"/>
</svg>
